<?xml version="1.0" encoding="UTF-8" standalone="no"?>
<!-- Created with Inkscape (http://www.inkscape.org/) -->

<svg
   xmlns:dc="http://purl.org/dc/elements/1.1/"
   xmlns:cc="http://creativecommons.org/ns#"
   xmlns:rdf="http://www.w3.org/1999/02/22-rdf-syntax-ns#"
   xmlns:svg="http://www.w3.org/2000/svg"
   xmlns="http://www.w3.org/2000/svg"
   xmlns:sodipodi="http://sodipodi.sourceforge.net/DTD/sodipodi-0.dtd"
   xmlns:inkscape="http://www.inkscape.org/namespaces/inkscape"
   width="210mm"
   height="297mm"
   viewBox="0 0 210 297"
   version="1.1"
   id="svg8"
   inkscape:version="0.92.4 (5da689c313, 2019-01-14)"
   sodipodi:docname="gameover.svg"
   inkscape:export-filename="D:\PojetoUnity\HamburguerAttack\gameover.png"
   inkscape:export-xdpi="95.529541"
   inkscape:export-ydpi="95.529541">
  <defs
     id="defs2" />
  <sodipodi:namedview
     id="base"
     pagecolor="#ffffff"
     bordercolor="#666666"
     borderopacity="1.0"
     inkscape:pageopacity="0.0"
     inkscape:pageshadow="2"
     inkscape:zoom="0.49497475"
     inkscape:cx="-1422.711"
     inkscape:cy="863.56572"
     inkscape:document-units="mm"
     inkscape:current-layer="layer1"
     showgrid="false"
     inkscape:window-width="1600"
     inkscape:window-height="848"
     inkscape:window-x="-8"
     inkscape:window-y="-8"
     inkscape:window-maximized="1" />
  <metadata
     id="metadata5">
    <rdf:RDF>
      <cc:Work
         rdf:about="">
        <dc:format>image/svg+xml</dc:format>
        <dc:type
           rdf:resource="http://purl.org/dc/dcmitype/StillImage" />
        <dc:title />
      </cc:Work>
    </rdf:RDF>
  </metadata>
  <g
     inkscape:label="Camada 1"
     inkscape:groupmode="layer"
     id="layer1">
    <path
       sodipodi:nodetypes="ccc"
       inkscape:connector-curvature="0"
       id="path834"
       d="M -127.08706,12.872279 C -18.277414,162.2027 -142.15258,204.61551 -244.36732,182.25935 -458.55511,128.31076 -231.37612,-51.148903 -127.08706,12.872279 Z"
       style="fill:#edecec;stroke-width:0.26458335" />
    <path
       sodipodi:nodetypes="cccsccssscccscscscsssccscsccsscssccccccscssccsscccsccccscssscccccccccccccccssccscccscccscsscccccsccccccccccscscsccsccccccscsssccccsccccc"
       inkscape:connector-curvature="0"
       id="path832"
       d="m -318.92941,179.9826 c 223.666751,79.7934 111.83337,39.8967 0,0 z m 77.91982,-15.1311 c -0.65484,-0.049 -2.91703,-0.33189 -5.02708,-0.62874 -13.38622,-1.88322 -22.13728,-6.4381 -26.22403,-13.64947 -0.81224,-1.43327 -1.61397,-3.01067 -1.7816,-3.50533 -0.5237,-1.54533 -0.33632,-3.96632 0.62439,-8.06739 0.5076,-2.16682 0.9229,-3.9886 0.9229,-4.04839 0,-0.29354 -1.95606,-0.86135 -3.96875,-1.15207 -2.99778,-0.43301 -3.38393,-0.59864 -3.48683,-1.4956 -0.0772,-0.67297 -0.23144,-0.77389 -1.67254,-1.09431 -0.87313,-0.19415 -3.31391,-0.93263 -5.42396,-1.64108 -3.78798,-1.27182 -5.53374,-1.74653 -10.71563,-2.9138 -3.08006,-0.69381 -3.69196,-1.04326 -1.83885,-1.05013 1.33903,-0.005 3.67507,0.48648 12.2899,2.58551 3.88653,0.94697 5.53516,1.22025 8.00364,1.32669 1.78055,0.0768 3.10886,0.0316 3.10886,-0.10575 0,-0.13189 -1.57758,-0.50879 -3.50573,-0.83757 -1.92815,-0.32877 -5.17261,-1.07418 -7.2099,-1.65646 -3.92241,-1.12107 -8.70439,-2.30907 -12.11413,-3.00955 -2.40163,-0.49338 -3.32439,-0.2711 -2.81624,0.67839 0.24685,0.46125 0.21789,0.52802 -0.19507,0.44965 -0.80588,-0.15293 -0.779,-1.42455 0.0415,-1.96214 0.93787,-0.61452 4.39388,-0.40458 11.3798,0.69127 7.67156,1.2034 9.31622,1.36683 14.02292,1.39345 4.89476,0.0277 6.21771,-0.14978 6.21771,-0.83404 0,-0.48921 -0.98865,-1.53154 -2.11667,-2.2316 -0.96553,-0.59922 -2.96956,-0.82516 -4.07705,-0.45966 -1.24476,0.41081 -1.90151,0.16595 -2.25207,-0.83967 -0.62791,-1.80122 1.54895,-3.91491 4.03189,-3.91491 1.36914,0 4.07959,0.71394 5.10659,1.34508 0.45374,0.27885 0.90022,0.507 0.99218,0.507 0.32047,0 0.15866,-0.94433 -0.6308,-3.68129 -1.06008,-3.6752 -1.46735,-7.16024 -1.06388,-9.10375 0.33462,-1.61184 2.0363,-5.2907 3.51606,-7.601375 0.51731,-0.80779 1.11531,-1.87935 1.32889,-2.38125 0.51085,-1.20047 1.68953,-2.29892 2.06449,-1.92396 0.19433,0.19433 -0.0362,0.72668 -0.7658,1.76817 -1.35452,1.93364 -3.2251,7.432755 -3.2195,9.464675 0.005,1.93424 0.53726,4.03226 1.93655,7.63795 1.81782,4.68419 3.03335,7.20554 3.413,7.07956 0.72838,-0.24167 0.71317,-4.11574 -0.0376,-9.5931 -0.69534,-5.07267 -0.91605,-7.35876 -0.93236,-9.6573 -0.0223,-3.147055 0.44439,-3.598325 0.6841,-0.66145 0.17959,2.2002 1.93341,11.03662 2.33181,11.74852 0.39197,0.70042 0.61748,-1.37443 0.46699,-4.29661 -0.10906,-2.11771 -0.3412,-3.30767 -1.09201,-5.59781 -0.52443,-1.59962 -0.94034,-3.266495 -0.92425,-3.704175 0.0242,-0.6583 0.0892,-0.56723 0.37633,0.52715 0.19089,0.7276 0.77709,2.436135 1.30267,3.796725 2.04044,5.28223 2.39538,10.53455 1.14219,16.90201 -0.43124,2.19113 -0.50712,3.04939 -0.2889,3.26761 0.3887,0.3887 2.77232,-0.29428 4.05303,-1.16131 4.85002,-3.2834 21.49242,-5.85397 28.36187,-4.38074 1.71727,0.36829 2.06935,0.0652 1.32527,-1.14086 -1.33266,-2.16006 -1.74384,-3.88077 -1.75909,-7.36156 -0.0163,-3.71164 0.15832,-4.25826 2.00529,-6.27794 0.5626,-0.61521 1.02291,-1.25206 1.02291,-1.41522 0,-0.67796 0.8843,-2.096425 1.30695,-2.096425 0.58247,0 1.60347,-1.08318 1.60347,-1.70113 0,-0.45491 -0.0317,-0.45561 -0.70337,-0.0155 l -0.70338,0.46087 0.63366,-0.88988 c 0.84661,-1.18896 4.53437,-4.87007 6.19988,-6.18871 1.42451,-1.12783 5.34131,-5.17031 9.27804,-9.57576 2.27002,-2.54028 2.46767,-2.85921 3.60468,-5.81636 1.28233,-3.33514 1.85971,-5.18245 3.00388,-9.611 0.94474,-3.65663 1.2633,-4.27106 2.16484,-4.17547 0.89371,0.0948 1.38328,-0.77399 1.38871,-2.46425 0.004,-1.36069 0.36506,-1.82724 1.91255,-2.47382 0.52979,-0.22136 1.03179,-0.61841 1.11555,-0.88234 0.0838,-0.26393 0.77705,-0.94162 1.54061,-1.50598 0.76357,-0.56436 2.40034,-2.00064 3.63727,-3.19172 2.11745,-2.03897 10.76513,-9.26568 14.55208,-12.16091 0.94589,-0.72316 2.66728,-2.19846 3.82531,-3.27845 3.05349,-2.8477 6.239,-4.85872 8.78277,-5.54458 3.02355,-0.81523 4.5039,-1.06074 7.55439,-1.2529 4.51426,-0.28436 11.52312,0.62979 13.96878,1.82193 1.056,0.51474 1.19161,0.68103 1.19928,1.47064 0.0108,1.10785 0.88673,1.88785 2.1201,1.88785 0.48373,0 1.16509,0.10858 1.51413,0.24128 0.71021,0.27002 1.07655,0.11235 1.32905,-0.57201 0.26264,-0.71185 1.09902,-0.56137 3.5043,0.63049 3.524,1.74621 6.73731,4.8545 6.73731,6.51711 0,0.33407 0.32742,1.34796 0.72761,2.25308 0.72207,1.63316 0.72759,1.68994 0.72571,7.46651 -0.003,7.91325 -0.7748,12.16381 -2.59683,14.29362 -1.21192,1.41663 -2.29607,3.03809 -2.29607,3.434 0,0.17797 0.35719,0.77303 0.79375,1.32238 1.18549,1.49174 1.10404,2.78233 -0.30915,4.89859 -1.51537,2.26928 -22.95959,23.88069 -25.8846,26.086415 -1.52926,1.1532 -4.61078,2.89761 -9.62927,5.45102 -7.90277,4.02092 -13.62442,7.28758 -17.54965,10.01961 -4.84279,3.37066 -15.86127,11.88971 -16.20234,12.527 -0.36612,0.6841 -0.19449,1.05746 2.03752,4.43235 0.85966,1.29983 1.85556,4.59483 2.22737,7.36932 0.28012,2.09031 0.25771,2.40335 -0.30309,4.23334 -1.87204,6.10879 -5.71302,10.37978 -12.30659,13.68433 -2.02908,1.01692 -7.63012,2.99049 -11.37708,4.00878 -3.54228,0.96266 -10.29322,2.29235 -13.5086,2.6607 -2.17362,0.249 -9.72325,0.30551 -12.55286,0.094 z m 41.63845,-70.850875 c -0.30755,-0.80145 -3.55394,-2.59454 -3.9608,-2.18767 -0.16871,0.1687 3.35373,2.55707 3.78749,2.56808 0.17733,0.004 0.25532,-0.16669 0.17331,-0.38041 z m 28.31088,-18.82372 c 1.1823,-0.52567 3.10213,-1.36633 4.2663,-1.86814 2.20439,-0.95019 6.67776,-3.16622 7.15319,-3.54357 0.15072,-0.11963 1.04369,-0.59504 1.98438,-1.05647 1.79949,-0.88269 2.91203,-1.73622 2.88459,-2.21303 -0.0331,-0.57522 -2.56255,-2.13969 -4.87841,-3.0173 -2.24189,-0.84958 -2.4549,-0.88361 -3.63959,-0.58136 -1.64205,0.41894 -4.99079,2.24834 -6.4225,3.50859 -0.62239,0.54785 -1.25757,0.99608 -1.41152,0.99608 -0.34558,0 -4.32936,2.69033 -5.59202,3.7764 -1.19692,1.02954 -2.11359,2.51471 -2.11531,3.42718 -0.001,0.56181 0.21802,0.84059 0.99083,1.26091 1.48481,0.80756 3.98515,0.55336 6.78006,-0.68929 z m 44.75683,-33.37363 c -0.46782,-1.88701 -1.2756,-2.81445 -3.44886,-3.95973 -1.16417,-0.6135 -2.53339,-1.19196 -3.04271,-1.28546 -0.50932,-0.0935 -1.37311,-0.47134 -1.91953,-0.83965 -0.85741,-0.57794 -1.1895,-0.64943 -2.42469,-0.52194 -1.72342,0.17787 -2.53495,0.57032 -2.53495,1.22588 0,0.79403 0.60715,1.08144 3.216,1.52232 3.19964,0.54073 8.45394,2.71742 9.24657,3.83056 0.69172,0.97143 1.14552,0.98544 0.90817,0.028 z m -135.34267,54.62443 c -0.001,-0.88961 1.10382,-2.10558 1.70411,-1.87523 0.59606,0.22873 0.50562,0.89507 -0.12149,0.89507 -0.31746,0 -0.7451,0.34778 -1.05734,0.85989 l -0.52429,0.8599 -0.001,-0.73963 z"
       style="fill:#a25d54;stroke-width:0.26458335" />
    <path
       sodipodi:nodetypes="ccccsscccccccsccccccccccccccscccsscccscscccccsccssscscccsccsscccsccsssssscscsccscccsccccccccscccssccccccccsccsccscssccsccsccscssscscsscsscsccsccsssscsccccscsccscssssssssccccccccscsccccccscccsccccccssccsccccccscccccsssccccccccccccccsscsccscscsscccccscccccccccssccccccscccccccccccccccccccccccccccscccccccccccccscccscccscccsccccccccccccsscsscsssscsscccccscssccccccscsc"
       inkscape:connector-curvature="0"
       id="path830"
       d="m -208.6647,179.91578 c 150.156941,79.83795 75.07847,39.91897 0,0 z m -31.81572,-16.12006 c -3.16434,-0.22981 -8.03276,-0.97447 -10.05417,-1.53786 -1.23693,-0.34475 -3.27364,-0.87254 -4.52604,-1.17287 -1.25239,-0.30033 -2.8002,-0.76727 -3.43958,-1.03765 -0.63938,-0.27038 -1.73275,-0.69961 -2.42972,-0.95386 -1.66373,-0.6069 -5.48773,-3.1685 -7.38684,-4.94826 -2.21947,-2.07998 -4.29273,-6.00443 -4.59164,-8.69142 -0.26763,-2.40589 -0.20796,-4.75014 0.1445,-5.6772 0.14349,-0.37738 0.38439,-1.45932 0.53535,-2.40429 0.15097,-0.94498 0.53371,-2.25172 0.85055,-2.90388 0.44046,-0.90658 0.50306,-1.25874 0.26594,-1.49586 -0.17533,-0.17533 -1.71562,-0.4049 -3.54375,-0.52817 -2.60905,-0.17593 -3.46643,-0.33952 -4.439,-0.847 -0.66297,-0.34593 -1.74118,-0.71634 -2.39602,-0.82314 -1.6103,-0.26263 -6.02722,-1.68099 -6.22343,-1.99846 -0.21352,-0.34548 -0.24014,-0.34944 2.98446,0.44392 2.3471,0.57746 3.49643,0.70418 6.59911,0.7276 2.60685,0.0197 3.8544,-0.069 4.07514,-0.28971 0.48343,-0.48332 -0.42812,-0.74961 -4.78945,-1.39917 -2.16961,-0.32313 -6.02059,-1.1785 -8.86354,-1.96874 -2.7649,-0.76854 -6.27724,-1.67141 -7.80521,-2.00637 -1.52797,-0.33495 -2.89719,-0.72454 -3.04271,-0.86574 -0.33029,-0.32049 2.77139,-0.0894 6.08542,0.45344 9.94317,1.62863 9.57423,1.59189 16.0597,1.59943 4.33348,0.005 6.36303,-0.0855 6.57095,-0.29303 0.75155,-0.75028 -1.58338,-3.29365 -3.51103,-3.82447 -1.30251,-0.35868 -2.00235,-0.37804 -3.60213,-0.0997 -1.27723,0.22222 -1.62016,-0.0322 -1.61693,-1.19947 0.003,-1.14996 1.09534,-2.12813 2.97943,-2.66848 1.03814,-0.29773 4.16969,0.39482 5.63284,1.24573 0.59487,0.34595 1.2925,0.629 1.5503,0.629 0.59391,0 0.51614,-0.60993 -0.62418,-4.89479 -0.92929,-3.4919 -1.26774,-8.24914 -0.63232,-8.88788 0.2467,-0.248 0.38622,-0.0439 0.6289,0.91982 0.17642,0.70062 0.5271,1.35371 0.80744,1.50374 0.27256,0.14588 0.49557,0.49975 0.49557,0.78638 0,0.28664 0.30417,1.14565 0.67592,1.90892 0.37176,0.76327 1.20034,2.66146 1.84129,4.21819 2.60937,6.33761 3.37178,7.20262 4.03221,4.57483 0.25424,-1.01159 0.26591,-1.93777 0.05,-3.96567 -0.15495,-1.45521 -0.33345,-2.88396 -0.39667,-3.175 -0.24064,-1.10795 -0.93418,-7.87028 -0.81899,-7.98547 0.0665,-0.0665 0.25233,0.51246 0.41304,1.28648 1.22805,5.91452 2.00068,9.21253 2.15824,9.21253 0.29667,0 0.50211,-1.06795 0.53441,-2.77812 0.0165,-0.87313 0.11956,-1.88516 0.22904,-2.24896 0.18585,-0.6176 0.21286,-0.59307 0.4073,0.36993 0.32284,1.59888 -0.0501,7.17477 -0.65655,9.81653 -0.6321,2.75345 -0.54708,3.57187 0.37106,3.57187 0.34546,0 0.69664,0.1786 0.78041,0.39688 0.10657,0.27772 0.53976,0.39687 1.44286,0.39687 0.70982,0 1.67693,0.19274 2.14915,0.42832 1.45332,0.72501 3.57764,0.31167 6.54406,-1.27333 2.24824,-1.20127 2.79631,-1.37812 5.20258,-1.67876 1.4793,-0.18482 3.97901,-0.58362 5.55492,-0.88622 2.41841,-0.46437 3.48042,-0.52682 6.80921,-0.4004 4.25973,0.16177 5.90519,-0.097 5.74971,-0.90434 -0.0864,-0.44882 -0.21381,-0.47959 -4.5763,-1.1056 -3.17521,-0.45564 -2.28501,-0.80364 1.5496,-0.60577 2.2829,0.1178 2.91979,0.0729 3.10281,-0.21857 0.27178,-0.43285 0.0812,-1.17001 -0.53959,-2.08658 -1.08485,-1.60185 -1.59948,-3.78964 -1.59347,-6.77404 0.007,-3.39234 0.36796,-4.43474 2.16934,-6.26199 1.73735,-1.76229 3.31761,-2.37417 5.56077,-2.15314 0.99046,0.0976 1.86474,0.28087 1.94286,0.40727 0.0781,0.1264 -0.0436,0.22982 -0.27045,0.22982 -0.22687,0 -0.41249,0.11906 -0.41249,0.26458 0,0.14552 0.36488,0.26458 0.81085,0.26458 1.0004,0 3.02379,0.84207 5.21308,2.16951 0.91207,0.55302 1.71574,1.00549 1.78594,1.00549 0.0702,0 0.12763,-0.23812 0.12763,-0.52916 0,-0.55803 0.38493,-0.71201 0.66145,-0.26459 0.0899,0.14553 0.27153,0.26459 0.40354,0.26459 0.13201,0 -0.11314,-0.52328 -0.54478,-1.16285 -0.43164,-0.63957 -0.7848,-1.29136 -0.7848,-1.44842 0,-0.2973 -1.00557,-0.88699 -2.07664,-1.21779 -0.54382,-0.16796 -0.59942,-0.12258 -0.44519,0.36335 0.0969,0.30541 0.11856,0.55529 0.048,0.55529 -0.43881,0 -2.72241,-1.16192 -2.89718,-1.474125 -0.29344,-0.52418 -3.64193,-0.50152 -5.45503,0.0369 -0.76837,0.228185 -1.47459,0.337025 -1.56938,0.241865 -0.0948,-0.0951 0.4551,-0.728335 1.22197,-1.407065 0.76687,-0.67873 1.39195,-1.36774 1.38906,-1.53114 -0.0114,-0.64546 1.10459,-2.75456 1.59695,-3.01806 0.28721,-0.15371 0.81546,-0.74403 1.17389,-1.31182 0.35842,-0.56779 1.21989,-1.36562 1.91436,-1.77296 1.11326,-0.65298 1.56013,-0.74761 3.77622,-0.79968 1.59683,-0.0375 2.71673,0.0584 3.07066,0.26298 0.30641,0.17713 1.51512,0.82352 2.68603,1.43643 1.1709,0.61291 3.19317,1.75973 4.49394,2.54847 2.93582,1.78021 3.50771,1.98784 3.50771,1.27353 0,-0.50895 -1.5316,-2.63493 -2.54131,-3.52755 -0.61122,-0.54033 -4.00864,-1.69612 -5.71985,-1.94586 -0.68734,-0.10032 -1.50923,-0.40748 -1.82643,-0.68258 -0.31719,-0.2751 -0.84913,-0.50018 -1.18207,-0.50018 -1.39668,0 -1.37144,-0.0309 7.96704,-9.74931 4.02264,-4.1863 5.36929,-6.89243 5.41827,-10.88819 0.0193,-1.57504 0.2075,-1.92403 1.54635,-2.86769 0.60103,-0.42363 1.07981,-0.56805 1.51834,-0.45799 0.91764,0.23032 0.83883,1.26522 -0.30902,4.0581 -0.84855,2.06462 -1.5164,4.53869 -1.29082,4.78184 0.55739,0.60077 4.90123,-3.56609 7.74278,-7.4273 1.67651,-2.27812 2.21409,-3.07284 3.42694,-5.06613 0.25483,-0.4188 0.85027,-1.33867 1.32322,-2.04414 0.47294,-0.70548 0.85989,-1.45551 0.85989,-1.66673 0,-0.5544 -1.17176,-1.39355 -2.22068,-1.59032 -0.59555,-0.11173 -1.1361,-0.47573 -1.5898,-1.07056 -0.37809,-0.4957 -0.68743,-0.95748 -0.68743,-1.02619 0,-0.211 1.8158,-2.33219 3.56767,-4.16768 0.91537,-0.95905 2.23529,-2.50686 2.93315,-3.43958 1.61499,-2.15848 11.09981,-11.50306 12.1523,-11.97262 5.18395,-2.31279 5.3811,-2.42065 5.08241,-2.78054 -0.46127,-0.5558 0.32809,-0.98355 3.08361,-1.67099 4.25346,-1.06114 13.75944,-0.78625 16.83711,0.48689 l 0.92604,0.38307 -0.92604,0.77049 c -1.05146,0.87485 -1.76813,0.95047 -3.93056,0.41478 -3.18852,-0.7899 -9.02849,-0.726 -11.61329,0.12706 -0.68227,0.22517 -0.83341,0.37539 -0.60588,0.60218 0.20231,0.20165 1.73193,0.30217 4.59783,0.30217 3.69175,0 4.39718,0.067 5.02492,0.47703 0.40165,0.26236 0.9332,0.41486 1.18122,0.33889 1.1649,-0.35679 2.42936,0.31332 4.35324,2.30704 l 1.91856,1.98821 2.38125,0.32401 c 2.76287,0.37593 5.73657,1.48043 6.65627,2.47229 0.35265,0.38032 0.91072,0.69149 1.24014,0.69149 0.6062,0 2.8698,1.29178 3.2001,1.82622 0.0987,0.15974 0.47634,0.29045 0.83912,0.29045 0.49502,0 0.72865,-0.19806 0.93631,-0.79375 0.32912,-0.94411 0.32899,-0.94409 1.31256,-0.24373 0.89065,0.6342 1.55821,1.79039 1.55821,2.69877 0,1.45004 -2.40373,4.10512 -6.50626,7.18662 -1.15099,0.86452 -3.58098,3.07238 -5.39999,4.90635 -1.81901,1.83397 -5.58423,5.53858 -8.36715,8.23247 -2.78292,2.69389 -5.23475,5.24853 -5.4485,5.67698 -0.31434,0.63005 -0.37478,1.91724 -0.3161,6.73212 0.0781,6.40791 -0.11427,8.53094 -0.98966,10.92268 -0.30798,0.84148 -0.49074,1.5992 -0.40613,1.68381 0.19042,0.19043 1.19445,-0.58621 3.09212,-2.39183 1.7987,-1.71145 2.57678,-2.18455 1.30695,-0.79468 -0.5181,0.56708 -1.82779,2.09774 -2.91042,3.40146 -5.73378,6.90473 -6.83734,7.70681 -16.42059,11.934725 -12.49618,5.51303 -17.26673,8.28067 -27.32861,15.85474 -2.92327,2.20049 -5.88059,4.38693 -6.57181,4.85875 -0.69122,0.47182 -1.25677,1.0614 -1.25677,1.31017 0,0.24877 0.97095,1.52297 2.15766,2.83156 2.92981,3.23068 4.72151,5.98817 4.72151,7.26656 0,0.54064 0.24495,1.68622 0.54434,2.54575 0.35631,1.02294 0.4905,1.88266 0.38845,2.48881 -0.0857,0.50932 -0.26707,1.69995 -0.40297,2.64584 -0.1359,0.94588 -0.30798,2.10336 -0.38241,2.57217 -0.23971,1.5098 -1.63071,4.12703 -3.17553,5.9749 -2.96594,3.54777 -7.09132,5.95501 -14.34608,8.37125 -4.90496,1.63361 -12.86814,3.42237 -17.6831,3.97212 -2.17849,0.24873 -9.42852,0.30607 -12.30312,0.0973 z m -14.02292,-7.08151 c 0,-0.0642 -0.11906,-0.19027 -0.26458,-0.2802 -0.14552,-0.0899 -0.26459,-0.0374 -0.26459,0.11667 0,0.15411 0.11907,0.2802 0.26459,0.2802 0.14552,0 0.26458,-0.0525 0.26458,-0.11667 z m -1.85208,-0.94166 c 0,-0.14552 -0.11907,-0.26458 -0.26459,-0.26458 -0.14552,0 -0.26458,0.11906 -0.26458,0.26458 0,0.14552 0.11906,0.26458 0.26458,0.26458 0.14552,0 0.26459,-0.11906 0.26459,-0.26458 z m 33.0822,-1.97749 c 1.0863,-0.36001 2.49632,-0.65767 3.13339,-0.66145 l 1.15829,-0.007 -0.1703,-1.06503 c -0.20867,-1.30495 0.15242,-1.52364 1.55093,-0.9393 0.63759,0.2664 1.13506,0.3273 1.42146,0.17402 0.24233,-0.12969 1.23415,-0.1721 2.20405,-0.0942 1.46153,0.11732 1.91427,0.0507 2.64432,-0.38911 0.48448,-0.29186 0.99993,-0.4861 1.14545,-0.43164 0.37414,0.14002 2.53306,-0.72559 3.38134,-1.35574 0.39179,-0.29104 0.78376,-0.89283 0.87104,-1.33732 0.14135,-0.71985 0.0425,-0.88868 -0.9044,-1.54489 -0.64268,-0.44538 -1.2533,-0.67683 -1.54407,-0.58527 -0.41697,0.1313 -2.29899,-0.0816 -3.5237,-0.39855 -0.27341,-0.0708 -0.37856,0.0752 -0.33799,0.46924 0.0429,0.41626 -0.14487,0.64299 -0.68957,0.83288 -1.0288,0.35864 -1.60488,-0.006 -1.15525,-0.73171 0.1819,-0.29351 0.33073,-0.89354 0.33073,-1.3334 0,-0.52384 0.26809,-1.08028 0.77708,-1.61289 1.12225,-1.17433 0.59026,-2.12076 -0.66037,-1.17483 -0.73905,0.55898 -0.86706,0.50333 -0.95985,-0.41737 -0.062,-0.61526 -0.36495,-1.02635 -1.20165,-1.63063 -1.01819,-0.73535 -1.2987,-0.80682 -3.12083,-0.79508 -1.38054,0.009 -1.97149,-0.0804 -1.90356,-0.28759 0.0542,-0.16528 0.44653,-0.33943 0.87187,-0.38701 1.13711,-0.12719 1.30517,-0.45485 0.42111,-0.82104 -0.53432,-0.22133 -0.74132,-0.46481 -0.65989,-0.77621 0.0653,-0.24954 -0.1268,-0.67585 -0.4268,-0.94734 -0.7938,-0.71838 -0.67625,-0.94078 0.49727,-0.94078 1.10637,0 1.42967,-0.21818 1.10403,-0.74507 -0.19832,-0.32089 -0.67471,-0.30257 -10.41498,0.40047 l -2.05052,0.14808 v 1.3683 c 0,1.46675 0.31329,2.00089 1.1774,2.00734 0.29831,0.002 0.71124,0.11093 0.91761,0.24155 0.28646,0.18132 0.12996,0.35274 -0.66145,0.72459 -0.71929,0.33795 -1.06455,0.68415 -1.1277,1.13074 -0.0501,0.35401 -0.4508,0.97973 -0.89053,1.3905 -0.73834,0.68972 -0.77013,0.7911 -0.4155,1.32519 0.55968,0.84292 1.00017,0.89394 1.00017,0.11584 0,-0.91507 0.51283,-1.15588 1.02849,-0.48296 0.2347,0.30627 0.87984,0.74448 1.43365,0.97381 0.80687,0.33411 0.97433,0.51969 0.84282,0.93404 -0.24325,0.7664 0.0663,1.09815 0.67178,0.72001 0.41855,-0.26139 0.59288,-0.23988 0.94996,0.1172 0.76101,0.76101 0.27318,1.27211 -1.21423,1.27211 -1.15483,0 -1.33122,0.0701 -1.33122,0.52917 0,0.314 0.18827,0.54365 0.46302,0.5648 1.3149,0.10122 1.91282,0.13393 3.27798,0.17933 0.97472,0.0324 1.69322,0.21252 2.07227,0.51945 0.56617,0.45846 0.56897,0.48945 0.11546,1.27965 -0.43326,0.75491 -0.54791,0.80181 -1.69127,0.69195 -0.97128,-0.0933 -1.51224,0.0316 -2.59969,0.60017 -2.03876,1.06604 -1.71175,2.29844 0.87577,3.30049 0.72761,0.28178 1.3271,0.51789 1.33221,0.5247 0.005,0.007 0.89808,-0.28218 1.98437,-0.6422 z m -6.13986,-9.22822 c 0.0673,-0.34954 -0.0413,-0.45812 -0.3908,-0.3908 -0.2662,0.0513 -0.52595,0.31102 -0.57722,0.57722 -0.0673,0.34954 0.0413,0.45811 0.3908,0.3908 0.2662,-0.0513 0.52596,-0.31102 0.57722,-0.57722 z m 21.47641,-33.01516 c 0,-0.88082 -0.65405,-2.3458 -1.0473,-2.3458 -0.99227,0 -1.06089,0.57453 -0.19344,1.61962 0.86184,1.03833 1.24074,1.26009 1.24074,0.72618 z m -12.60326,-3.47028 c 0.98825,-1.18932 0.92234,-1.70168 -0.18322,-1.4242 -0.42229,0.10599 -0.75762,0.46035 -0.94542,0.99907 -0.65105,1.86762 -0.2085,2.03431 1.12864,0.42513 z m 11.28034,0.0818 c 0,-0.31217 -0.51603,-0.64611 -0.70555,-0.45659 -0.18953,0.18953 0.14441,0.70556 0.45658,0.70556 0.13694,0 0.24897,-0.11203 0.24897,-0.24897 z m -9.06457,-1.53697 c 0.39678,-0.85661 0.23426,-1.51663 -0.39547,-1.60605 -0.73315,-0.10411 -0.96908,0.4214 -0.61147,1.36199 0.30987,0.81501 0.69882,0.90929 1.00694,0.24406 z m 3.11145,-2.44739 c 0.47059,-0.52 0.46213,-0.52917 -0.48816,-0.52917 -1.03843,0 -1.04881,0.008 -0.80645,0.63982 0.21824,0.56873 0.71847,0.52597 1.29461,-0.11065 z m 6.44688,-4.16067 c 0.24191,-0.432275 0.30626,-0.432275 1.21275,0 1.79379,0.85541 2.2822,0.43575 0.99312,-0.853325 -0.52659,-0.52659 -1.27045,-0.85811 -2.57969,-1.14971 -2.47612,-0.55148 -5.84621,-0.81794 -6.0558,-0.47882 -0.27095,0.43841 0.85224,0.85627 1.81575,0.67552 0.72913,-0.13679 0.95253,-0.0698 1.1792,0.35376 0.1538,0.28739 0.75936,0.71447 1.34569,0.94907 0.58633,0.2346 1.06606,0.546585 1.06606,0.693275 0,0.43982 0.74827,0.301 1.02292,-0.18977 z m 6.86577,-1.077485 c 0.0586,-0.39791 -0.3744,-1.0315 -1.45521,-2.12917 -1.63002,-1.65544 -3.28512,-2.46668 -5.63974,-2.76432 -1.04676,-0.13231 -1.13177,-0.1071 -0.7036,0.20864 0.31204,0.2301 0.42949,0.54038 0.3269,0.8636 -0.12803,0.4034 0.11897,0.65556 1.23278,1.25856 0.76609,0.41475 2.16684,1.24822 3.11279,1.85216 2.54183,1.62281 2.97705,1.72173 3.12608,0.71053 z m -14.09083,-0.97119 c 0.49281,-0.37274 0.48479,-0.3888 -0.1984,-0.39687 -0.71843,-0.008 -1.1364,0.30396 -0.82422,0.61614 0.25284,0.25284 0.45605,0.20927 1.02262,-0.21927 z m 9.5783,-4.96935 c -0.0591,-0.1819 -0.60314,-0.50506 -1.2089,-0.71814 -0.85541,-0.3009 -1.17216,-0.31665 -1.41825,-0.0706 -0.5253,0.5253 -0.15465,0.68546 2.51418,1.08631 0.12127,0.0182 0.1721,-0.11571 0.11297,-0.29761 z m 9.58842,-2.81487 c 0.72657,-0.44105 1.22358,-0.94856 1.27517,-1.30212 0.12198,-0.83588 -0.8582,-0.76294 -1.60765,0.11964 -0.32646,0.38445 -0.89,0.97976 -1.25232,1.32291 -0.60686,0.57477 -0.61728,0.62228 -0.13229,0.60312 0.28956,-0.0114 1.06224,-0.34603 1.71709,-0.74355 z m 3.18031,-3.34309 c 0.5229,-0.63006 0.13933,-0.72632 -0.56314,-0.14131 -0.48946,0.40761 -0.53525,0.52897 -0.20217,0.53578 0.23684,0.005 0.58123,-0.17267 0.76531,-0.39447 z m 3.85556,-3.19632 c 2.64892,-2.54743 2.82236,-2.65217 4.73809,-2.86114 0.87312,-0.0952 2.00422,-0.28208 2.51354,-0.41521 0.50932,-0.13312 2.15181,-0.43142 3.64996,-0.66288 4.54734,-0.70256 7.94291,-2.06861 15.92921,-6.40837 7.70516,-4.187 9.26041,-5.24294 9.26041,-6.28735 0,-0.71664 -2.16879,-2.6676 -3.96875,-3.57014 -1.52732,-0.76583 -5.54572,-3.16659 -6.16107,-3.68087 -0.30177,-0.25221 -1.17251,-0.42125 -2.4095,-0.46775 -1.06533,-0.0401 -2.46004,-0.19342 -3.09934,-0.3408 -1.69746,-0.39131 -3.21066,-0.33899 -3.88651,0.1344 -0.3261,0.22841 -0.88508,0.99186 -1.24218,1.69657 -0.3571,0.7047 -1.00271,1.53294 -1.43469,1.84054 -0.43198,0.30759 -0.8518,0.76452 -0.93295,1.01541 -0.0811,0.25088 -0.56405,0.73911 -1.07311,1.08496 -0.50907,0.34586 -1.17018,1.02461 -1.46915,1.50835 -0.29896,0.48373 -1.40595,1.90116 -2.45997,3.14983 -1.05401,1.24867 -2.65952,3.48694 -3.56779,4.97395 -0.90828,1.487 -1.79199,2.90665 -1.96382,3.15477 -0.25525,0.36858 -0.2018,0.56887 0.29214,1.09465 l 0.60456,0.64353 -0.81051,0.92312 c -0.44579,0.50772 -1.82315,1.79243 -3.06081,2.85491 -2.12336,1.82281 -2.70582,2.63161 -1.89516,2.63161 0.19533,0 1.29665,-0.90544 2.4474,-2.01209 z m 37.41413,-20.60368 c 0,-0.21493 0.29766,-0.58581 0.66146,-0.82418 0.40092,-0.2627 0.66146,-0.68311 0.66146,-1.06735 0,-0.61211 -0.0549,-0.62979 -1.59424,-0.5131 -0.97396,0.0738 -1.53359,0.0227 -1.43836,-0.13138 0.0857,-0.13873 -0.14935,-0.11315 -0.52242,0.0568 -0.37307,0.16998 -0.67832,0.41604 -0.67832,0.54679 0,0.13075 -0.11996,0.16358 -0.26659,0.073 -0.31861,-0.19691 0.28484,1.25062 0.62123,1.49017 0.12821,0.0913 0.45661,0.10756 0.72977,0.0361 0.30267,-0.0791 0.56065,0.0369 0.66048,0.29701 0.20525,0.53489 1.16553,0.56465 1.16553,0.0361 z m 3.12208,-1.24964 c 0.41487,-0.41487 0.40715,-1.19575 -0.0132,-1.33718 -0.62414,-0.21 -1.20436,0.1157 -1.32436,0.7434 -0.16071,0.84075 0.7059,1.22546 1.33758,0.59378 z m 3.3236,-2.98979 c 0.091,-0.23711 0.002,-0.39688 -0.22066,-0.39688 -0.43516,0 -0.73009,0.37965 -0.48519,0.62455 0.27882,0.27882 0.54436,0.19317 0.70585,-0.22767 z m -3.27068,-0.39688 c 0,-0.14552 -0.0525,-0.26458 -0.11668,-0.26458 -0.0642,0 -0.19026,0.11906 -0.28019,0.26458 -0.0899,0.14552 -0.0374,0.26458 0.11667,0.26458 0.15411,0 0.2802,-0.11906 0.2802,-0.26458 z m 0.79375,-0.26458 c 0,-0.14552 -0.0525,-0.26458 -0.11668,-0.26458 -0.0642,0 -0.19026,0.11906 -0.28019,0.26458 -0.0899,0.14552 -0.0374,0.26458 0.11667,0.26458 0.15411,0 0.2802,-0.11906 0.2802,-0.26458 z m 0.98668,-0.42444 c -0.0879,-0.0879 -0.31613,-0.0973 -0.50712,-0.0209 -0.21107,0.0845 -0.14837,0.14716 0.15985,0.15985 0.27891,0.0115 0.43519,-0.0511 0.34727,-0.13896 z m 15.68207,-12.25995 c 0,-0.31217 -0.51603,-0.64611 -0.70555,-0.45659 -0.18953,0.18953 0.14441,0.70556 0.45658,0.70556 0.13694,0 0.24897,-0.11203 0.24897,-0.24897 z m -137.44182,58.943035 c 0.30868,-0.99568 1.46982,-3.19591 1.61172,-3.05401 0.29673,0.29672 -0.75801,3.11261 -1.26814,3.38562 -0.48253,0.25824 -0.51632,0.22562 -0.34358,-0.33161 z m 125.57948,-19.062735 c 1.11493,-1.40863 9.18155,-9.93626 11.14689,-11.78393 0.81264,-0.76399 1.66325,-1.38907 1.89024,-1.38907 0.56297,0 0.52929,0.13358 -0.35495,1.40754 -1.2995,1.87225 -12.72856,12.87996 -13.37298,12.87996 -0.10523,0 0.20563,-0.50152 0.6908,-1.1145 z"
       style="fill:#972213;stroke-width:0.26458335" />
    <path
       sodipodi:nodetypes="ccccccccscccccccccccccccccsccsccccccccccccccscccssccccccscccccccccccsccscccccsccsccscscccccscccsccccccccccscccsccscscccccccsssscscsccsccsscccsccccsscccccccccccscccsscccsccscccsccsccccccccccccssccccsccscscsccssssccssssccccssssccscccccccccccccccccsssssccccccccccccccccscccsscccscscccccsccsssccccccccccccccccscsccccsccscccscccccccsccccscsc"
       inkscape:connector-curvature="0"
       id="path828"
       d="m -98.333009,97.894605 c 9.96328,167.303795 4.98164,83.651895 0,0 z M -235.85021,163.51739 c -4.69075,-0.17836 -9.67008,-0.87109 -14.15521,-1.96928 -3.53406,-0.86531 -4.59252,-1.28548 -4.97928,-1.97657 -0.17191,-0.30719 -0.46396,-0.39212 -0.99762,-0.29011 -0.85431,0.16331 -2.75646,-0.4992 -2.7503,-0.95792 0.014,-1.04575 1.50059,-1.52134 2.23134,-0.71386 0.27085,0.29928 0.81342,0.54415 1.20571,0.54415 0.3923,0 1.0783,0.12725 1.52445,0.28278 0.64257,0.224 0.98346,0.19369 1.64001,-0.14582 0.7788,-0.40274 0.87993,-0.39757 1.67569,0.0856 0.70835,0.43008 1.0849,0.47996 2.30208,0.30495 0.80036,-0.11508 1.77369,-0.29151 2.16295,-0.39206 0.62939,-0.16258 0.71727,-0.1019 0.79375,0.54808 0.10441,0.88729 0.53639,1.07728 1.12074,0.49293 0.30319,-0.30319 0.38796,-0.68698 0.28022,-1.26859 -0.13765,-0.743 -0.0646,-0.87312 0.67035,-1.19387 0.7512,-0.32786 0.9373,-0.30164 2.08473,0.29366 l 1.25989,0.65366 0.57296,-0.64325 c 0.40704,-0.45698 0.7308,-0.59315 1.11805,-0.47024 0.2998,0.0951 0.70034,0.0442 0.8901,-0.11333 0.49471,-0.41058 1.82406,0.10844 2.15826,0.84264 0.14952,0.32849 0.44067,0.54201 0.65602,0.48113 0.21295,-0.0602 1.3975,-0.15048 2.63231,-0.2006 1.23482,-0.0501 3.08029,-0.26001 4.10104,-0.46641 1.02076,-0.2064 2.54218,-0.45748 3.38093,-0.55795 0.84757,-0.10152 1.80638,-0.40399 2.1584,-0.68089 0.43529,-0.3424 1.06242,-0.49822 2.00513,-0.49822 0.96603,0 1.56853,-0.15479 2.03707,-0.52335 0.51207,-0.40279 0.78206,-0.46086 1.17212,-0.25211 0.2983,0.15965 1.14647,0.19886 2.06166,0.0953 1.28211,-0.14505 1.64958,-0.304 2.09474,-0.90612 0.54259,-0.7339 0.92797,-0.86825 3.74691,-1.30628 0.80037,-0.12437 1.79547,-0.35979 2.21133,-0.52316 0.41587,-0.16338 1.18978,-0.30464 1.7198,-0.31391 3.45087,-0.0604 4.10134,-0.004 4.31382,0.37602 0.1305,0.2332 0.43667,0.33743 0.75026,0.25542 0.80924,-0.21162 0.66612,0.60149 -0.26629,1.51295 -5.17797,5.06164 -23.66997,10.04769 -35.58412,9.59465 z m -17.47675,-7.23873 c -0.27266,-0.44117 0.34057,-0.94708 0.70557,-0.58208 0.3053,0.30531 0.11422,0.86972 -0.29445,0.86972 -0.12834,0 -0.31335,-0.12944 -0.41112,-0.28764 z m 13.00791,-6.80906 c -0.0862,-0.13949 0.2887,-0.33433 0.83313,-0.43298 0.54443,-0.0987 1.25776,-0.24368 1.58518,-0.32228 0.32743,-0.0786 0.59532,-0.0266 0.59532,0.11552 0,0.14214 -0.44649,0.32191 -0.99219,0.39949 -0.5457,0.0776 -1.1885,0.22044 -1.42845,0.31746 -0.23994,0.097 -0.50679,0.0623 -0.59299,-0.0772 z m -10.72932,-1.29002 c -0.50086,-0.0666 -1.15243,-0.29039 -1.44793,-0.49737 -0.29551,-0.20698 -0.80142,-0.37633 -1.12426,-0.37633 -0.32283,0 -0.65099,-0.1036 -0.72925,-0.23022 -0.0783,-0.12662 -0.84346,-0.49244 -1.70044,-0.81293 -1.617,-0.60472 -3.13139,-1.93461 -3.67803,-3.22993 -0.37595,-0.89087 -0.14228,-1.12895 0.61869,-0.63034 0.46629,0.30552 0.97647,0.34421 2.35331,0.17846 1.77478,-0.21367 3.35533,0.0285 4.5506,0.69738 0.31782,0.17785 0.84627,0.29361 1.17432,0.25724 0.37544,-0.0416 0.70054,0.13178 0.87734,0.46795 0.30976,0.58896 1.47219,1.81045 1.59001,1.67079 0.0409,-0.0485 0.21379,-0.35608 0.38414,-0.6835 0.41627,-0.80009 0.69217,-0.74962 1.08486,0.19844 0.18882,0.45583 0.52661,0.79375 0.79346,0.79375 0.25556,0 0.62318,0.19099 0.81692,0.42443 0.19374,0.23344 0.62504,0.52815 0.95844,0.65491 0.3334,0.12676 0.60618,0.35249 0.60618,0.50161 0,0.27367 -0.12235,0.29448 -2.51354,0.42755 -0.7276,0.0405 -1.8587,0.12662 -2.51354,0.19139 -0.65484,0.0648 -1.60042,0.0633 -2.10128,-0.003 z m 7.59138,-0.88809 c -0.25466,-0.15207 -0.46302,-0.46268 -0.46302,-0.69024 0,-0.32412 0.18631,-0.37817 0.8599,-0.24949 0.47294,0.0904 1.09802,0.19316 1.38906,0.22847 0.29104,0.0353 0.52917,0.24279 0.52917,0.46107 0,0.48419 -1.6285,0.66018 -2.31511,0.25019 z m 34.96303,-6.26946 c -0.0897,-1.47728 -0.11124,-1.52136 -0.74226,-1.52136 -0.35095,0 -0.6883,-0.14882 -0.74965,-0.33073 -0.0614,-0.1819 0.083,-0.33072 0.32086,-0.33072 0.24115,0 0.59764,-0.39542 0.80594,-0.89396 0.41348,-0.98959 0.93201,-1.29679 1.81489,-1.0752 0.87761,0.22027 1.63565,-0.70158 1.21825,-1.48149 -0.24371,-0.4554 -0.23788,-0.72402 0.0265,-1.21798 0.42996,-0.8034 -0.0225,-1.43497 -0.65311,-0.91163 -0.31602,0.26229 -0.49454,0.21983 -0.93725,-0.22288 -0.65604,-0.65604 -1.42348,-0.67665 -2.6486,-0.0711 -0.62846,0.31062 -0.97704,0.70701 -1.12364,1.27776 -0.29942,1.16573 -1.43122,1.61516 -2.9399,1.1674 -0.95001,-0.28194 -2.03682,-1.04317 -2.03682,-1.42663 0,-0.0635 0.33575,-0.47479 0.7461,-0.91408 0.84726,-0.90699 2.84837,-1.58946 3.30923,-1.1286 0.54681,0.54681 0.63891,0.2756 0.22015,-0.64829 -0.29908,-0.65984 -0.54085,-0.88294 -0.82763,-0.76374 -0.91516,0.38041 -1.22385,0.37918 -1.72805,-0.007 -0.52351,-0.40086 -0.52256,-0.40705 0.0885,-0.57855 0.4621,-0.12968 0.52874,-0.22972 0.26458,-0.39717 -0.1942,-0.1231 -0.59122,-0.22638 -0.88226,-0.2295 -0.29104,-0.003 -0.85135,-0.17377 -1.24514,-0.3792 -0.39378,-0.20544 -0.95932,-0.30988 -1.25677,-0.2321 -0.37702,0.0986 -0.5408,0.0142 -0.5408,-0.27874 0,-0.2501 0.34077,-0.50847 0.8419,-0.63833 0.46304,-0.11999 0.89008,-0.36272 0.94898,-0.5394 0.11301,-0.33905 -1.86181,-1.35853 -2.65078,-1.36843 -0.25466,-0.003 -0.46302,-0.11637 -0.46302,-0.25149 0,-0.44202 0.85349,-1.11112 1.22474,-0.96016 0.19952,0.0811 0.54136,0.21978 0.75964,0.30811 0.27621,0.11177 0.39687,-0.005 0.39687,-0.38373 0,-0.29938 0.20836,-0.66713 0.46302,-0.81722 0.70349,-0.41461 -0.0398,-0.78509 -1.51065,-0.75301 -1.293,0.0282 -2.64163,-0.52846 -3.72055,-1.53571 -0.36692,-0.34255 -1.13651,-0.72035 -1.71018,-0.83954 -0.80338,-0.16692 -1.07815,-0.36644 -1.1958,-0.86832 -0.13948,-0.59504 -0.34707,-0.67908 -2.39085,-0.96792 -3.66662,-0.51821 -4.1005,-0.62267 -3.67598,-0.88503 0.20768,-0.12836 1.61111,-0.16219 3.11873,-0.0752 2.17935,0.12577 2.78835,0.083 2.9715,-0.20869 0.27183,-0.43293 0.0812,-1.17004 -0.53955,-2.08667 -0.88028,-1.2998 -1.59927,-3.83971 -1.59927,-5.64956 0,-1.90702 0.39355,-2.35387 0.68848,-0.78173 0.10081,0.53737 0.42438,1.38564 0.71904,1.88505 0.49877,0.84536 0.55998,0.87487 0.88703,0.4276 0.1932,-0.26423 0.35128,-0.6812 0.35128,-0.92661 0,-0.66252 0.68842,-1.16712 0.88684,-0.65004 0.20577,0.53622 0.96525,0.51897 0.96525,-0.0219 0,-0.32727 0.16049,-0.38527 0.69492,-0.25114 0.5822,0.14612 0.6667,0.10087 0.52094,-0.27898 -0.21808,-0.5683 1.04515,-1.95473 1.78103,-1.95473 0.58054,0 1.21529,-0.70317 1.22803,-1.36038 0.005,-0.23889 0.30607,-0.50905 0.66987,-0.60036 0.3638,-0.0913 0.66146,-0.28281 0.66146,-0.42556 0,-0.14274 0.21983,-0.25954 0.48851,-0.25954 0.73985,0 2.19754,-0.8047 2.08414,-1.15052 -0.1198,-0.36532 -1.3312,-0.5403 -2.2113,-0.31941 -0.5193,0.13033 -0.60348,0.27666 -0.46851,0.81441 0.16076,0.64053 0.12983,0.65552 -1.35177,0.65552 -1.34274,0 -1.47714,-0.0472 -1.17425,-0.41212 0.18812,-0.22667 0.86428,-0.71818 1.50257,-1.09225 0.96062,-0.56296 1.3661,-0.65194 2.35384,-0.51656 0.65632,0.09 1.42708,0.3273 1.7128,0.52743 0.50753,0.35549 0.50409,0.37396 -0.14994,0.80249 -0.68195,0.44683 -0.89179,0.9556 -0.39413,0.9556 0.15141,0 0.61168,-0.2487 1.02282,-0.55267 l 0.74751,-0.55266 1.06853,0.54512 c 0.58769,0.29982 1.70033,1.24871 2.47254,2.10866 1.22769,1.3672 1.49342,1.87484 2.11603,4.04244 0.41874,1.45781 0.65212,2.79107 0.56657,3.23675 -0.13456,0.70109 -0.1041,0.73571 0.40678,0.4623 0.36337,-0.19447 0.6083,-0.20481 0.71619,-0.0302 0.2972,0.48088 0.58178,0.27774 0.8317,-0.59367 0.19111,-0.66637 0.42216,-0.88917 1.03046,-0.99365 0.7364,-0.12649 0.78892,-0.21731 0.86306,-1.49249 0.0504,-0.86654 -0.11458,-1.9084 -0.45592,-2.87957 -0.58075,-1.65233 -0.51761,-2.08706 0.26695,-1.83805 0.69159,0.2195 0.67365,-0.64036 -0.0527,-2.52434 -0.30777,-0.79831 -0.69473,-1.93337 -0.8599,-2.52234 -0.16517,-0.58898 -0.51141,-1.392655 -0.76943,-1.785945 -0.25802,-0.39329 -0.42184,-0.71507 -0.36406,-0.71507 0.0578,0 0.66493,0.31291 1.34921,0.69536 1.09631,0.612745 1.32033,0.654595 1.88541,0.35217 0.85081,-0.45534 0.79844,-0.92324 -0.27931,-2.49551 -0.49603,-0.72362 -0.86298,-1.35457 -0.81546,-1.40209 0.0475,-0.0475 1.32957,0.51476 2.84897,1.24953 2.61448,1.26435 4.45621,1.69267 4.81087,1.11883 0.17923,-0.29001 -0.81291,-1.89954 -1.17091,-1.89954 -0.15509,0 -0.45983,-0.44648 -0.67721,-0.99219 -0.21738,-0.5457 -0.53592,-1.27286 -0.70788,-1.61592 -0.2714,-0.54146 -0.23108,-0.68977 0.30576,-1.12447 0.34012,-0.27541 0.90012,-0.50075 1.24444,-0.50075 0.37413,0 0.7987,-0.2635 1.05509,-0.65481 0.36665,-0.55957 1.67543,-1.53418 3.5935,-2.67597 1.03535,-0.61633 1.46865,-1.18745 1.35438,-1.7852 -0.14402,-0.75337 0.0351,-0.89972 2.96965,-2.42652 1.30969,-0.6814 2.63447,-1.47272 2.94396,-1.75849 0.58036,-0.53587 2.92211,-1.00242 5.08174,-1.01244 1.33531,-0.006 1.37343,0.36923 0.12038,1.1853 -1.26669,0.82494 -1.50046,1.34944 -0.943,2.11569 0.61797,0.84942 1.03286,0.82652 1.50317,-0.0829 0.26651,-0.51539 0.73805,-0.85148 1.52814,-1.0892 0.62849,-0.1891 1.49989,-0.45412 1.93645,-0.58893 0.6575,-0.20304 0.85278,-0.15727 1.13763,0.26665 0.30243,0.45009 0.45906,0.47641 1.29965,0.21843 0.60039,-0.18426 1.13383,-0.59511 1.43464,-1.10496 0.35082,-0.5946 0.80426,-0.89866 1.6957,-1.13709 1.40833,-0.37667 1.70842,-0.26702 1.70842,0.62423 0,0.39769 0.15249,0.64584 0.39688,0.64584 0.21828,0 0.4106,0.14883 0.42739,0.33073 0.0168,0.1819 0.0465,0.50932 0.0662,0.7276 0.0205,0.22844 0.26021,0.37499 0.56479,0.3453 1.3623,-0.13279 3.83581,-0.77013 5.06707,-1.30561 0.45855,-0.19943 1.02665,-0.3626 1.26244,-0.3626 0.23579,0 0.87264,-0.28756 1.41522,-0.63903 0.54259,-0.35146 1.87949,-1.12734 2.97089,-1.72419 4.10426,-2.24444 4.44311,-2.26423 5.93691,-0.34688 0.82415,1.05783 0.94201,1.3947 0.94026,2.68737 -0.003,2.07869 -0.44093,4.65393 -1.0969,6.44749 -0.30776,0.84148 -0.49033,1.5992 -0.40572,1.68381 0.19042,0.19043 1.19445,-0.58621 3.09212,-2.39183 1.7987,-1.71145 2.57678,-2.18455 1.30695,-0.79468 -0.5181,0.56708 -1.82779,2.09774 -2.91042,3.40146 -5.73378,6.90473 -6.83734,7.70681 -16.42059,11.934725 -12.49618,5.51303 -17.26673,8.28067 -27.32861,15.85474 -2.92327,2.20049 -5.88059,4.38693 -6.57181,4.85875 -0.69122,0.47182 -1.25677,1.06518 -1.25677,1.31858 0,0.2534 0.7463,1.28948 1.65844,2.3024 1.75539,1.94932 2.90633,3.57999 3.21646,4.55711 0.16159,0.50913 0.0917,0.59185 -0.49994,0.59185 -0.37829,0 -1.11523,0.17859 -1.63765,0.39687 -0.52242,0.21828 -1.35203,0.39688 -1.84358,0.39688 -0.49155,0 -0.89373,0.12974 -0.89373,0.28831 0,0.15858 -0.25791,0.49716 -0.57313,0.75241 -0.54496,0.44129 -0.55146,0.49502 -0.13229,1.09347 0.59328,0.84703 0.56414,0.95 -0.31886,1.1266 -0.50088,0.10017 -0.94853,0.472 -1.31399,1.09141 -0.30487,0.5167 -0.67738,0.93946 -0.82781,0.93946 -0.15043,0 -0.2735,0.1786 -0.2735,0.39688 0,0.21828 0.11906,0.39687 0.26458,0.39687 0.14552,0 0.26458,0.12279 0.26458,0.27287 0,0.15008 -0.39381,0.24635 -0.87515,0.21394 -0.48272,-0.0325 -1.16165,0.14173 -1.51408,0.38858 -0.35141,0.24614 -0.91383,0.44753 -1.24982,0.44753 -0.33599,0 -0.67942,0.17859 -0.76318,0.39687 -0.21333,0.55591 -1.14753,0.50364 -1.18214,-0.0661 z m -5.2582,-19.12614 c 0.73274,-1.36914 -0.70303,-2.35792 -1.76337,-1.21439 l -0.63434,0.6841 0.53473,0.53473 c 0.68532,0.68532 1.49486,0.6834 1.86298,-0.004 z m 6.08007,-10.40157 c 0,-0.19656 -0.12955,-0.76211 -0.28788,-1.25677 -0.15834,-0.49466 -0.33086,-1.04211 -0.38338,-1.21656 -0.0708,-0.23517 -0.30422,-0.21306 -0.90274,0.0855 -0.92319,0.46055 -1.03934,1.01487 -0.296,1.4127 0.28119,0.15048 0.58686,0.51186 0.67929,0.80306 0.18699,0.58915 1.19071,0.73418 1.19071,0.17205 z m -1.32292,-3.45076 c 0,-0.34667 -0.53718,-0.68976 -1.07997,-0.68976 -0.13362,0 -0.24294,0.23812 -0.24294,0.52916 0,0.38806 0.17639,0.52917 0.66146,0.52917 0.38899,0 0.66145,-0.15182 0.66145,-0.36857 z m -62.57396,24.71024 c -0.29104,-0.12507 -0.98835,-0.23576 -1.54957,-0.24599 -1.44791,-0.0264 -5.73368,-0.82529 -6.52022,-1.21543 -0.3638,-0.18045 -1.19724,-0.41454 -1.85208,-0.5202 -1.6031,-0.25866 -6.0264,-1.67759 -6.22343,-1.99638 -0.21352,-0.34548 -0.24014,-0.34944 2.98446,0.44392 2.3471,0.57746 3.49643,0.70418 6.59911,0.7276 2.60685,0.0197 3.8544,-0.069 4.07514,-0.28971 0.48343,-0.48332 -0.42812,-0.74961 -4.78945,-1.39917 -2.16961,-0.32313 -6.02059,-1.1785 -8.86354,-1.96874 -2.7649,-0.76854 -6.27724,-1.67141 -7.80521,-2.00637 -1.52797,-0.33495 -2.89719,-0.72454 -3.04271,-0.86574 -0.33029,-0.32049 2.77139,-0.0894 6.08542,0.45344 9.94317,1.62863 9.57423,1.59189 16.0597,1.59943 4.33348,0.005 6.36303,-0.0855 6.57095,-0.29303 0.75155,-0.75028 -1.58338,-3.29365 -3.51103,-3.82447 -1.30251,-0.35868 -2.00235,-0.37804 -3.60213,-0.0997 -1.27723,0.22222 -1.62016,-0.0322 -1.61693,-1.19947 0.003,-1.14996 1.09534,-2.12813 2.97943,-2.66848 1.03814,-0.29773 4.16969,0.39482 5.63284,1.24573 0.59487,0.34595 1.2925,0.629 1.5503,0.629 0.59391,0 0.51614,-0.60993 -0.62418,-4.89479 -0.92929,-3.4919 -1.26774,-8.24914 -0.63232,-8.88788 0.2467,-0.248 0.38622,-0.0439 0.6289,0.91982 0.17642,0.70062 0.5271,1.35371 0.80744,1.50374 0.27256,0.14588 0.49557,0.49975 0.49557,0.78638 0,0.28664 0.30417,1.14565 0.67592,1.90892 0.37176,0.76327 1.20034,2.66146 1.84129,4.21819 2.60937,6.33761 3.37178,7.20262 4.03221,4.57483 0.25424,-1.01159 0.26591,-1.93777 0.05,-3.96567 -0.15495,-1.45521 -0.33345,-2.88396 -0.39667,-3.175 -0.24064,-1.10795 -0.93418,-7.87028 -0.81899,-7.98547 0.0665,-0.0665 0.25233,0.51246 0.41304,1.28648 1.22805,5.91452 2.00068,9.21253 2.15824,9.21253 0.29667,0 0.50211,-1.06795 0.53441,-2.77812 0.0165,-0.87313 0.11956,-1.88516 0.22904,-2.24896 0.18585,-0.6176 0.21286,-0.59307 0.4073,0.36993 0.32284,1.59888 -0.0501,7.17477 -0.65655,9.81653 -0.5971,2.60095 -0.53327,3.57187 0.23481,3.57187 0.27052,0 0.6552,0.2419 0.85485,0.53755 0.24829,0.36768 0.68006,0.54857 1.36633,0.57245 0.55183,0.0192 1.07603,0.15256 1.1649,0.29635 0.24595,0.39795 -0.6343,0.91657 -1.32997,0.78358 -1.05063,-0.20084 -2.46943,0.56243 -2.64021,1.42034 -0.0827,0.41545 -0.23352,1.09602 -0.33515,1.51238 l -0.18479,0.75702 1.09422,-0.18487 c 1.26002,-0.21288 1.55068,0.11913 1.11273,1.27103 -0.32996,0.86785 -0.87799,0.90941 -1.31147,0.0994 -0.31418,-0.58705 -0.43899,-0.60678 -3.68273,-0.58206 -3.43076,0.0261 -4.47762,0.28061 -5.31748,1.29257 -0.30387,0.36614 -2.51553,1.77469 -2.71737,1.73062 -0.0469,-0.0102 -0.3233,-0.12092 -0.61434,-0.24598 z m 48.28646,-23.66776 c 0,-0.33757 0.64389,-1.46766 0.83623,-1.46766 0.26108,0 0.27145,0.1858 0.0554,0.99219 -0.0877,0.32742 -0.32425,0.59531 -0.52556,0.59531 -0.20131,0 -0.36601,-0.0539 -0.36601,-0.11984 z m -3.2631,-2.10938 c -0.25432,-0.66275 0.324,-2.14221 1.14476,-2.92855 0.43749,-0.41913 0.79543,-0.62775 0.79543,-0.4636 0,0.16416 -0.11906,0.37206 -0.26459,0.462 -0.14552,0.0899 -0.26502,0.48391 -0.26557,0.87551 -7.9e-4,0.62241 -0.86205,2.43178 -1.15744,2.43178 -0.0593,0 -0.17299,-0.16971 -0.25259,-0.37714 z m 6.30361,-0.74006 c -0.28983,-0.15607 -0.55953,-0.30869 -0.59934,-0.33916 -0.13939,-0.10671 0.26319,-0.92489 0.45509,-0.92489 0.20377,0 0.88441,1.33461 0.74947,1.46955 -0.043,0.043 -0.31539,-0.0494 -0.60522,-0.2055 z m -48.93649,-1.83666 c 0.30868,-0.99568 1.46982,-3.19591 1.61172,-3.05401 0.29673,0.29672 -0.75801,3.11261 -1.26814,3.38562 -0.48253,0.25824 -0.51632,0.22562 -0.34358,-0.33161 z m 48.55909,-5.930505 c 0.17166,-0.20683 0.48315,-0.37606 0.6922,-0.37606 0.53223,0 0.20597,0.43563 -0.45589,0.60871 -0.45028,0.11775 -0.49256,0.0761 -0.23631,-0.23265 z m 77.02039,-13.13223 c 1.11493,-1.40863 9.18155,-9.93626 11.14689,-11.78393 0.81264,-0.76399 1.66325,-1.38907 1.89024,-1.38907 0.56297,0 0.52929,0.13358 -0.35495,1.40754 -1.2995,1.87225 -12.72856,12.87996 -13.37298,12.87996 -0.10523,0 0.20563,-0.50152 0.6908,-1.1145 z"
       style="fill:#632018;stroke-width:0.26458335" />
    <path
       style="fill:#a25d54;fill-opacity:1;stroke:none;stroke-width:0.26458332px;stroke-linecap:butt;stroke-linejoin:miter;stroke-opacity:1"
       d="m -127.08706,12.872279 c 30.34177,72.108803 70.152334,148.469501 -71.22692,173.478131 85.4056,9.87879 167.643369,-42.57171 71.22692,-173.478131 z"
       id="path851"
       inkscape:connector-curvature="0"
       sodipodi:nodetypes="ccc" />
    <path
       inkscape:connector-curvature="0"
       id="path857"
       style="font-style:normal;font-variant:normal;font-weight:normal;font-stretch:normal;font-size:29.95118904px;line-height:1.25;font-family:'Script MT Bold';-inkscape-font-specification:'Script MT Bold, ';letter-spacing:0px;word-spacing:0px;fill:#632018;fill-opacity:1;stroke:none;stroke-width:1.19629657"
       d="m -296.91527,94.641998 q -0.35131,2.570146 -2.77572,7.197512 2.32822,6.16496 1.45691,11.04288 -0.85975,4.89912 -4.03711,7.15149 -1.52361,1.08012 -2.83572,0.89372 -1.29351,-0.19953 -2.06715,-1.61965 -2.14771,-3.94242 2.53934,-12.4067 -0.85275,-3.36196 -1.43088,-6.1253 -0.11985,2.75864 -1.54129,5.82297 -1.42144,3.06432 -3.33527,4.421 -3.12162,2.21286 -6.87697,0.61471 -3.74833,-1.63252 -6.32327,-6.35919 -2.7135,-4.98103 -2.79713,-11.091775 -0.0952,-6.131967 2.25901,-11.502853 2.34266,-5.392066 5.91021,-7.92105 3.19591,-2.265571 6.31568,-1.597736 3.13834,0.654633 4.93964,3.961186 1.93982,3.560924 1.16956,7.867749 -0.7703,4.306843 -3.68752,6.374815 -1.70943,1.211825 -3.36249,1.061459 -1.63448,-0.163502 -2.39657,-1.562422 -0.46206,-0.847687 -0.39245,-1.807861 0.088,-0.973191 0.664,-1.381518 0.55765,-0.394757 0.96157,0.346708 0.3582,0.656887 0.98162,0.71444 0.62364,0.05739 1.18107,-0.337771 1.48673,-1.05329 1.58429,-4.325616 0.10484,-3.306256 -1.33852,-5.955732 -1.01615,-1.8652 -2.71031,-2.280219 -1.70572,-0.436161 -3.37801,0.7493 -2.50843,1.778228 -3.4826,5.994499 -0.95559,4.20313 -0.17889,9.411258 0.78374,5.173742 2.81598,8.904209 1.87055,3.43375 4.27975,4.5465 2.39761,1.09158 4.55302,-0.43636 3.64186,-2.58166 3.76938,-10.81064 l 3.18147,-3.048581 q 0.5926,-0.566985 0.84663,-0.100686 0.11532,0.212064 0.49133,2.178484 0.37588,1.966516 1.5579,6.358446 1.84085,-3.949251 2.16162,-7.379194 z m -6.98058,14.702972 q -3.32998,6.18012 -1.87507,8.85079 0.77367,1.4201 1.96283,0.57712 2.3412,-1.65964 -0.0878,-9.42791 z" />
    <path
       inkscape:connector-curvature="0"
       id="path859"
       style="font-style:normal;font-variant:normal;font-weight:normal;font-stretch:normal;font-size:29.95118904px;line-height:1.25;font-family:'Script MT Bold';-inkscape-font-specification:'Script MT Bold, ';letter-spacing:0px;word-spacing:0px;fill:#632018;fill-opacity:1;stroke:none;stroke-width:0.74877971"
       d="m -280.88708,92.899937 q -0.89193,5.18918 -3.11228,6.781104 -1.22583,0.878879 -2.48181,0.392279 -1.25597,-0.486614 -2.33583,-2.283143 -0.34288,2.964553 -0.91969,4.691223 -0.56525,1.71839 -1.79107,2.59727 -1.57275,1.12762 -3.37341,0.25475 -1.79628,-0.89449 -3.20483,-3.50956 -1.68163,-3.122081 -2.21492,-7.326409 -0.54048,-4.217671 0.87631,-7.896707 1.41679,-3.679024 4.90922,-6.182992 2.61355,-1.87383 5.16819,-2.57726 l 0.47431,0.880582 q -0.47264,3.556947 0.60872,8.570482 1.09293,5.00524 2.27151,7.193362 0.57492,1.067377 1.26119,1.389111 0.69782,0.313447 1.36856,-0.16745 1.20269,-0.862294 1.66939,-4.340996 z m -11.10505,-11.956801 q -1.42324,0.09569 -2.64907,0.974564 -1.93124,1.384645 -2.47476,4.363593 -0.5507,2.965595 0.20017,6.681024 0.76242,3.70714 1.97694,5.961974 0.81207,1.507669 1.81957,2.098439 1.01189,0.56914 1.79827,0.005 1.36459,-0.97837 1.58884,-5.115509 -3.32461,-8.047358 -2.25996,-14.969415 z" />
    <path
       inkscape:connector-curvature="0"
       id="path861"
       style="font-style:normal;font-variant:normal;font-weight:normal;font-stretch:normal;font-size:29.95118904px;line-height:1.25;font-family:'Script MT Bold';-inkscape-font-specification:'Script MT Bold, ';letter-spacing:0px;word-spacing:0px;fill:#632018;fill-opacity:1;stroke:none;stroke-width:1.00104284"
       d="m -258.51483,72.558518 q 1.63426,7.003571 -0.45046,8.441901 -1.26898,0.875508 -3.80717,-1.017147 -2.52682,-1.900462 -5.6603,-5.84534 -2.42371,-3.051286 -6.01934,-8.836601 -3.58431,-5.793141 -5.4444,-10.144229 l -1.14326,-2.720038 q 0.79842,3.632782 2.49951,7.452519 1.6838,3.797946 5.07051,10.402187 3.39804,6.596438 4.44817,9.110866 1.05014,2.514423 1.53967,4.23477 0.48355,1.690721 0.35329,2.387893 -0.11892,0.689362 -1.2066,1.439787 -0.41921,0.289231 -0.76547,-0.146669 -0.0346,-0.0436 -0.94335,-1.474696 -0.90876,-1.431113 -3.08128,-4.453251 -2.1785,-3.051748 -7.68502,-10.11661 -5.52385,-7.086626 -8.50854,-12.787378 0.78737,3.066856 6.44604,12.354726 l 1.41334,2.331329 q 5.87899,9.67567 6.84773,13.831999 0.95141,4.134536 -0.49884,5.135114 -0.89506,0.617542 -2.44047,-0.0032 -1.54542,-0.620726 -2.67069,-2.03739 -0.86561,-1.089747 -1.12323,-3.003861 -0.24626,-1.921931 -0.031,-2.070458 0.24925,-0.171975 0.58825,0.100231 0.33896,0.272213 1.64086,1.668272 1.28453,1.374261 1.89736,1.659986 0.60682,0.256111 0.99205,-0.0097 0.87241,-0.601907 -0.73996,-4.685304 -1.62964,-4.105184 -6.34906,-11.746851 l -1.76617,-2.863878 q -2.16563,-3.499233 -3.30387,-5.682972 -1.13825,-2.183725 -2.0272,-4.539415 -1.26363,-3.379343 -1.19815,-3.694406 0.0595,-0.344674 0.55074,-0.852318 0.47402,-0.529358 1.05184,-0.928033 0.22661,-0.156334 0.62477,0.344941 0.19037,0.239734 0.71111,1.027652 2.20841,3.199814 4.66074,6.265067 l 4.66226,5.825429 q 6.08185,7.612605 9.14682,12.751867 -0.50748,-1.809172 -3.96814,-8.396134 -4.87247,-9.357957 -6.78484,-14.415228 -0.92974,-2.428949 -1.46007,-4.863253 -0.53647,-2.463933 -0.28912,-2.837035 0.85475,-1.264497 1.68184,-1.835137 0.30592,-0.211061 0.5656,0.11587 0.36354,0.457678 1.25344,2.306671 2.16317,4.445628 6.58636,11.515658 4.43449,7.062204 7.51605,10.9417 3.47971,4.380768 4.87331,3.419285 1.13301,-0.781699 -0.24649,-5.565579 z" />
    <path
       inkscape:connector-curvature="0"
       id="path863"
       style="font-style:normal;font-variant:normal;font-weight:normal;font-stretch:normal;font-size:29.95118904px;line-height:1.25;font-family:'Script MT Bold';-inkscape-font-specification:'Script MT Bold, ';letter-spacing:0px;word-spacing:0px;fill:#632018;fill-opacity:1;stroke:none;stroke-width:0.74877971"
       d="m -244.841,67.056002 q -0.5863,2.750691 -1.66567,4.615749 -1.07936,1.865059 -2.97592,3.224832 -2.50946,1.79921 -4.77897,1.484434 -2.25795,-0.323064 -3.48683,-2.604581 -1.07079,-1.98799 -0.63828,-4.369489 0.42531,-2.394836 2.66483,-4.814269 -3.04532,0.68533 -4.42512,-1.876374 -1.09952,-2.041355 -0.19726,-4.74116 0.89508,-2.713153 3.28889,-4.429447 1.7231,-1.235404 2.92191,-1.003732 1.19162,0.21834 1.53657,0.858765 0.2156,0.400268 0.0901,1.655389 -0.12547,1.255124 -0.39144,1.44582 -0.31224,0.223868 -0.99718,-0.690648 -1.5455,-2.036014 -2.80601,-1.132265 -0.98297,0.704758 -1.0982,2.544361 -0.11523,1.839613 0.74714,3.440678 1.37981,2.561705 3.55391,1.00294 0.35849,-0.257028 0.51444,-0.294861 0.14877,-0.05118 0.24938,0.135613 0.27309,0.507004 0.4302,1.245116 0.14992,0.724769 -0.11605,0.915465 -0.081,0.05804 -0.61415,0.347856 -0.54039,0.276471 -0.91045,0.541794 -1.22582,0.878877 -1.47949,2.669787 -0.25367,1.79091 0.63027,3.432002 0.9558,1.774513 2.61743,2.210704 1.65445,0.422847 3.22721,-0.70477 1.2952,-0.928621 2.15922,-2.657779 0.86403,-1.729159 1.12306,-3.986283 z" />
    <path
       inkscape:connector-curvature="0"
       id="path865"
       style="font-style:normal;font-variant:normal;font-weight:normal;font-stretch:normal;font-size:29.95118904px;line-height:1.25;font-family:'Script MT Bold';-inkscape-font-specification:'Script MT Bold, ';letter-spacing:0px;word-spacing:0px;fill:#632018;fill-opacity:1;stroke:none;stroke-width:1.31878603"
       d="m -244.16635,18.183081 q -1.6757,9.424301 -0.76878,17.583712 0.89561,8.133092 3.47211,14.134058 1.64987,3.842724 3.66513,5.131266 2.00394,1.262228 3.80421,-0.357022 3.60055,-3.23851 3.58209,-15.845462 -0.0116,-12.649614 -3.35654,-20.44035 -0.99444,-2.316156 -2.10942,-3.21046 -1.09679,-0.910679 -1.95147,-0.141936 -1.58206,1.422988 -1.46554,6.097613 0.1347,4.658276 1.28735,7.34292 0.82494,1.921362 2.16321,1.046014 0.54296,-0.379168 0.81427,0.252683 0.49721,1.158081 0.16485,3.025863 -0.3437,1.84147 -1.23474,2.642926 -1.09107,0.981354 -2.44687,0.230678 -1.34891,-0.793364 -2.27555,-2.951601 -1.95498,-4.55337 -1.42167,-10.94349 0.5515,-6.406519 3.0246,-8.630938 1.69116,-1.521119 3.50937,-0.456676 1.80691,1.038134 3.26467,4.433414 2.81382,6.553693 3.47978,16.206768 0.66597,9.653071 -1.05284,17.802709 -1.73013,8.123334 -5.0579,11.116502 -2.5822,2.322562 -5.62943,0.685279 -3.02906,-1.653626 -5.16485,-6.628112 -2.27139,-5.290325 -3.14453,-12.020746 -0.85494,-6.746784 -0.32851,-13.094238 0.51512,-6.373795 1.43383,-8.695984 0.9074,-2.348498 3.56237,-4.736503 z" />
    <path
       inkscape:connector-curvature="0"
       id="path867"
       style="font-style:normal;font-variant:normal;font-weight:normal;font-stretch:normal;font-size:29.95118904px;line-height:1.25;font-family:'Script MT Bold';-inkscape-font-specification:'Script MT Bold, ';letter-spacing:0px;word-spacing:0px;fill:#632018;fill-opacity:1;stroke:none;stroke-width:0.74877971"
       d="m -217.66136,25.30143 q 0.37006,-0.265317 1.45596,0.768602 1.08589,1.033924 1.84047,2.434858 1.67445,3.108735 2.51271,7.760217 0.84265,4.629845 0.21967,8.29458 -0.6186,3.643099 -2.6308,5.085782 -1.63058,1.169072 -3.37845,0.572775 -1.73631,-0.604585 -2.89333,-2.75268 -1.08516,-2.014674 -1.90153,-6.774328 -0.81984,-4.498236 -1.66784,-6.072616 -0.56055,-1.040693 -1.2165,-1.365671 -0.65595,-0.324977 -1.26886,0.114459 -0.94828,0.679887 -1.13132,2.512642 -0.17866,1.811111 0.57591,3.212044 0.61085,1.134087 1.42151,1.329645 0.80349,0.18221 0.9544,0.462396 0.25872,0.480319 0.0948,1.485566 -0.15951,0.983611 -0.55269,1.265511 -0.4857,0.348232 -1.31165,-0.113786 -0.83313,-0.475359 -1.34337,-1.422655 -1.30794,-2.428283 -0.99752,-5.720954 0.32198,-3.300974 2.34573,-4.751946 1.54963,-1.111034 3.20061,-0.42677 1.65536,0.662629 2.86987,2.917459 0.56055,1.040693 1.03353,2.514053 0.47298,1.473367 1.08013,4.921946 0.61151,3.426954 1.38765,4.867913 0.51024,0.947297 1.32214,1.234438 0.81628,0.265508 1.54483,-0.256843 1.11019,-0.795967 1.50519,-3.187562 0.38781,-2.404937 -0.12219,-5.40532 -0.51718,-3.013723 -1.73888,-5.281899 -1.15702,-2.148096 -3.63419,-3.830542 -0.76095,-0.490132 -0.91905,-0.783659 -0.27309,-0.507009 0.35931,-1.922146 0.63679,-1.436769 0.98372,-1.685509 z" />
    <path
       inkscape:connector-curvature="0"
       id="path869"
       style="font-style:normal;font-variant:normal;font-weight:normal;font-stretch:normal;font-size:29.95118904px;line-height:1.25;font-family:'Script MT Bold';-inkscape-font-specification:'Script MT Bold, ';letter-spacing:0px;word-spacing:0px;fill:#632018;fill-opacity:1;stroke:none;stroke-width:1.0117842"
       d="m -195.02176,25.414098 q -0.65595,4.489132 -1.86353,7.532909 -1.20758,3.043779 -3.32943,5.262932 -2.80755,2.936307 -5.34664,2.422593 -2.52617,-0.527237 -3.90103,-4.250676 -1.19797,-3.244404 -0.71409,-7.13101 0.47583,-3.908376 2.98137,-7.856895 -3.40705,1.118463 -4.95076,-3.062237 -1.23014,-3.331501 -0.22069,-7.737586 1.0014,-4.4278604 3.67957,-7.2288561 1.92777,-2.0161839 3.26898,-1.638099 1.33318,0.3563337 1.7191,1.4015042 0.2412,0.6532465 0.10083,2.7016071 -0.14037,2.0483606 -0.43794,2.3595798 -0.34931,0.3653961 -1.11563,-1.1271428 -1.72911,-3.3227566 -3.13933,-1.8478574 -1.09974,1.1501625 -1.22866,4.1524008 -0.12891,3.0022474 0.83591,5.6151884 1.5437,4.1807 3.97605,1.636798 0.40108,-0.41947 0.57556,-0.481201 0.16644,-0.08354 0.279,0.221316 0.30553,0.827437 0.4813,2.032034 0.16774,1.182821 -0.12983,1.494039 -0.0906,0.09473 -0.68711,0.567702 -0.60458,0.451194 -1.01859,0.884203 -1.37144,1.434329 -1.65524,4.357095 -0.2838,2.922768 0.70514,5.601032 1.06933,2.89601 2.92835,3.607872 1.85097,0.690089 3.61055,-1.150186 1.44905,-1.515506 2.41571,-4.337497 0.96666,-2.821991 1.25647,-6.50562 z" />
    <path
       inkscape:connector-curvature="0"
       id="path871"
       style="font-style:normal;font-variant:normal;font-weight:normal;font-stretch:normal;font-size:29.95118904px;line-height:1.25;font-family:'Script MT Bold';-inkscape-font-specification:'Script MT Bold, ';letter-spacing:0px;word-spacing:0px;fill:#632018;fill-opacity:1;stroke:none;stroke-width:0.74877971"
       d="m -176.02153,17.714556 q -0.44754,2.6512 -1.08746,4.201191 -0.63992,1.549987 -1.72697,2.329367 -1.1333,0.812545 -2.2871,0.456122 -1.14223,-0.364716 -1.88962,-1.752306 -0.44556,-0.827217 -0.90508,-2.513675 -0.44797,-1.694745 -0.86478,-2.468593 -0.66834,-1.240826 -1.39533,-0.775084 -0.44943,0.266754 -0.6794,-0.160201 -0.424,-0.78719 0.0733,-1.143716 l 0.80356,-0.502147 q 1.08705,-0.779379 1.06193,-2.462881 -0.0136,-1.691797 -0.94779,-3.4262838 -2.1775,-4.0426877 -6.15563,-1.1904877 -2.53259,1.8157925 -3.64335,4.8130255 -1.11794,2.983908 -0.0687,4.931871 0.59647,1.107403 1.84659,0.987889 0.59473,-0.05652 0.80314,0.330408 0.18685,0.346898 -0.4477,1.43067 -0.64174,1.070431 -0.96554,1.302588 -0.50883,0.364815 -1.33478,-0.0972 -0.82157,-0.483654 -1.35336,-1.470978 -1.5954,-2.96197 -0.12888,-6.935582 1.46651,-3.973607 5.21337,-6.6599881 3.1455,-2.2552283 5.73253,-1.9461697 2.5986,0.3007643 3.79874,2.5289135 0.75458,1.4009326 0.49464,3.4182743 -0.24839,2.009061 -2.67483,4.765955 1.39574,-0.05747 2.28949,0.411411 0.89814,0.447247 1.54493,1.648046 0.35932,0.66711 0.67767,1.585531 0.32993,0.910127 0.4521,1.136944 0.61803,1.14743 1.40441,0.583625 1.05235,-0.754508 1.5335,-4.89089 z m -12.82153,-8.5067729 q -0.46679,1.5738149 -0.24442,2.8199799 0.22237,1.246165 1.36461,4.200126 1.13505,2.940626 1.5883,4.853522 0.45762,1.891259 0.20891,4.048512 -0.24871,2.157246 -1.26307,3.994192 -1.00279,1.828651 -2.54085,2.931391 -1.66526,1.193943 -2.99376,0.870302 -1.32412,-0.345271 -1.97809,-1.559412 -0.20841,-0.386925 -0.11928,-0.876202 0.10069,-0.497573 0.62273,-1.61165 0.52205,-1.114078 0.82272,-1.329651 0.38162,-0.273612 0.65471,0.233392 0.0647,0.120081 0.36147,0.998474 0.30837,0.8701 0.38742,1.016865 0.40244,0.747163 1.03839,0.975508 0.62878,0.214998 1.19543,-0.191278 1.2027,-0.862294 1.17922,-3.286764 -0.0235,-2.424476 -1.50032,-6.118746 -1.47249,-3.715902 -1.69321,-5.703034 -0.2279,-2.000481 0.42986,-3.785195 0.66213,-1.8063504 1.59885,-2.4779486 0.26598,-0.1906962 0.88038,-0.00238 z" />
  </g>
</svg>
