# Blender v2.79 (sub 0) OBJ File: 'canhao.blend'
# www.blender.org
mtllib canhao.mtl
o Cylinder.001
v 0.555570 0.831470 -0.736544
v 0.382683 0.923880 -0.736544
v 0.195090 0.980785 -0.736544
v -0.000000 1.000000 -0.736544
v -0.195091 0.980785 -0.736544
v -0.382684 0.923879 -0.736544
v -0.555571 0.831469 -0.736544
v 0.555570 0.831470 0.783946
v 0.382683 0.923880 0.783946
v 0.195090 0.980785 0.783946
v -0.000000 1.000000 0.783946
v -0.195091 0.980785 0.783946
v -0.382684 0.923879 0.783946
v -0.555571 0.831469 0.783946
v 0.000001 -0.347364 -0.844741
v 0.067768 -0.340689 -0.844741
v 0.132931 -0.320922 -0.844741
v 0.192985 -0.288822 -0.844741
v 0.245624 -0.245623 -0.844741
v 0.288823 -0.192985 -0.844741
v 0.320923 -0.132930 -0.844741
v 0.340690 -0.067767 -0.844741
v 0.347364 -0.000000 -0.844741
v 0.340690 0.067767 -0.844741
v 0.320923 0.132930 -0.844741
v 0.288823 0.192985 -0.844741
v 0.245624 0.245623 -0.844741
v 0.192985 0.288822 -0.844741
v 0.132931 0.320922 -0.844741
v 0.067768 0.340689 -0.844741
v 0.000000 0.347363 -0.844741
v -0.067767 0.340689 -0.844741
v -0.132930 0.320922 -0.844741
v -0.192984 0.288822 -0.844741
v -0.245623 0.245623 -0.844741
v -0.288822 0.192984 -0.844741
v -0.320922 0.132930 -0.844741
v -0.340688 0.067767 -0.844741
v -0.347363 -0.000001 -0.844741
v -0.340688 -0.067768 -0.844741
v -0.320921 -0.132931 -0.844741
v -0.288821 -0.192985 -0.844741
v -0.245622 -0.245624 -0.844741
v -0.192984 -0.288823 -0.844741
v -0.132929 -0.320922 -0.844741
v -0.067766 -0.340689 -0.844741
vn -0.4714 0.8819 -0.0000
vn -0.2903 0.9569 -0.0000
vn -0.0980 0.9952 0.0000
vn 0.0980 0.9952 -0.0000
vn 0.2903 0.9569 -0.0000
vn 0.4714 0.8819 -0.0000
vn 0.0000 0.0000 -1.0000
usemtl None
s off
f 13//1 6//1 7//1 14//1
f 12//2 5//2 6//2 13//2
f 11//3 4//3 5//3 12//3
f 10//4 3//4 4//4 11//4
f 9//5 2//5 3//5 10//5
f 8//6 1//6 2//6 9//6
f 16//7 15//7 46//7 45//7 44//7 43//7 42//7 41//7 40//7 39//7 38//7 37//7 36//7 35//7 34//7 33//7 32//7 31//7 30//7 29//7 28//7 27//7 26//7 25//7 24//7 23//7 22//7 21//7 20//7 19//7 18//7 17//7
o Cylinder
v 0.000000 -0.773104 1.000000
v 0.000000 -0.511889 -2.674774
v 0.150825 -0.758249 1.000000
v 0.099865 -0.502054 -2.674774
v 0.295854 -0.714255 1.000000
v 0.195892 -0.472924 -2.674774
v 0.429514 -0.642812 1.000000
v 0.284390 -0.425621 -2.674774
v 0.546667 -0.546667 1.000000
v 0.361960 -0.361961 -2.674774
v 0.642812 -0.429514 1.000000
v 0.425620 -0.284391 -2.674774
v 0.714255 -0.295854 1.000000
v 0.472924 -0.195892 -2.674774
v 0.758249 -0.150825 1.000000
v 0.502053 -0.099865 -2.674774
v 0.773104 -0.000000 1.000000
v 0.511889 -0.000000 -2.674774
v 0.758249 0.150825 1.000000
v 0.502053 0.099864 -2.674774
v 0.714255 0.295854 1.000000
v 0.472924 0.195891 -2.674774
v 0.642812 0.429513 1.000000
v 0.425620 0.284390 -2.674774
v 0.546667 0.546667 1.000000
v 0.361960 0.361960 -2.674774
v 0.429514 0.642812 1.000000
v 0.284390 0.425620 -2.674774
v 0.295854 0.714255 1.000000
v 0.195891 0.472924 -2.674774
v 0.150825 0.758249 1.000000
v 0.099865 0.502053 -2.674774
v -0.000000 0.773104 1.000000
v -0.000000 0.511889 -2.674774
v -0.150825 0.758249 1.000000
v -0.099865 0.502053 -2.674774
v -0.295854 0.714255 1.000000
v -0.195892 0.472924 -2.674774
v -0.429514 0.642812 1.000000
v -0.284391 0.425620 -2.674774
v -0.546667 0.546667 1.000000
v -0.361960 0.361960 -2.674774
v -0.642813 0.429513 1.000000
v -0.425620 0.284390 -2.674774
v -0.714255 0.295853 1.000000
v -0.472924 0.195891 -2.674774
v -0.758249 0.150824 1.000000
v -0.502053 0.099864 -2.674774
v -0.773104 -0.000001 1.000000
v -0.511889 -0.000001 -2.674774
v -0.758249 -0.150826 1.000000
v -0.502053 -0.099865 -2.674774
v -0.714254 -0.295855 1.000000
v -0.472924 -0.195892 -2.674774
v -0.642812 -0.429514 1.000000
v -0.425620 -0.284391 -2.674774
v -0.546666 -0.546668 1.000000
v -0.361960 -0.361961 -2.674774
v -0.429513 -0.642813 1.000000
v -0.284390 -0.425621 -2.674774
v -0.295853 -0.714255 1.000000
v -0.195891 -0.472924 -2.674774
v -0.150824 -0.758249 1.000000
v -0.099864 -0.502054 -2.674774
v 0.000000 -1.000000 -0.736544
v 0.195090 -0.980785 -0.736544
v 0.382683 -0.923880 -0.736544
v 0.555570 -0.831470 -0.736544
v 0.707107 -0.707107 -0.736544
v 0.831470 -0.555570 -0.736544
v 0.923880 -0.382683 -0.736544
v 0.980785 -0.195090 -0.736544
v 1.000000 -0.000000 -0.736544
v 0.980785 0.195090 -0.736544
v 0.923880 0.382683 -0.736544
v 0.831470 0.555570 -0.736544
v 0.707107 0.707107 -0.736544
v 0.555570 0.831470 -0.736544
v 0.382683 0.923880 -0.736544
v 0.195090 0.980785 -0.736544
v -0.000000 1.000000 -0.736544
v -0.195091 0.980785 -0.736544
v -0.382684 0.923879 -0.736544
v -0.555571 0.831469 -0.736544
v -0.707107 0.707106 -0.736544
v -0.831470 0.555570 -0.736544
v -0.923880 0.382683 -0.736544
v -0.980785 0.195089 -0.736544
v -1.000000 -0.000001 -0.736544
v -0.980785 -0.195091 -0.736544
v -0.923879 -0.382684 -0.736544
v -0.831469 -0.555571 -0.736544
v -0.707106 -0.707108 -0.736544
v -0.555569 -0.831470 -0.736544
v -0.382682 -0.923880 -0.736544
v -0.195089 -0.980786 -0.736544
v 0.000000 -0.665671 -0.907919
v 0.129866 -0.652881 -0.907919
v 0.254741 -0.615000 -0.907919
v 0.369827 -0.553486 -0.907919
v 0.470701 -0.470701 -0.907919
v 0.553486 -0.369827 -0.907919
v 0.615000 -0.254741 -0.907919
v 0.652881 -0.129866 -0.907919
v 0.665671 -0.000000 -0.907919
v 0.652881 0.129866 -0.907919
v 0.615000 0.254741 -0.907919
v 0.553486 0.369827 -0.907919
v 0.470701 0.470701 -0.907919
v 0.369827 0.553485 -0.907919
v 0.254741 0.615000 -0.907919
v 0.129866 0.652880 -0.907919
v -0.000000 0.665671 -0.907919
v -0.129866 0.652880 -0.907919
v -0.254742 0.615000 -0.907919
v -0.369827 0.553485 -0.907919
v -0.470701 0.470700 -0.907919
v -0.553486 0.369827 -0.907919
v -0.615000 0.254741 -0.907919
v -0.652881 0.129865 -0.907919
v -0.665671 -0.000001 -0.907919
v -0.652880 -0.129867 -0.907919
v -0.615000 -0.254742 -0.907919
v -0.553485 -0.369828 -0.907919
v -0.470700 -0.470701 -0.907919
v -0.369826 -0.553486 -0.907919
v -0.254740 -0.615001 -0.907919
v -0.129865 -0.652881 -0.907919
v 0.195090 -0.980785 0.854268
v 0.382683 -0.923879 0.853925
v 0.555570 -0.831470 0.853609
v 0.707107 -0.707107 0.853332
v 0.831470 -0.555570 0.853104
v 0.923880 -0.382683 0.852935
v 0.980785 -0.195090 0.852831
v 1.000000 -0.000000 0.852796
v 0.980785 0.195090 0.852831
v 0.923880 0.382683 0.852936
v 0.831470 0.555570 0.853105
v 0.707107 0.707107 0.853332
v 0.555570 0.831470 0.853609
v 0.382683 0.923880 0.853925
v 0.195090 0.980785 0.854268
v -0.000000 1.000000 0.854625
v -0.195091 0.980785 0.854981
v -0.382684 0.923879 0.855324
v -0.555571 0.831469 0.855640
v -0.707107 0.707106 0.855917
v -0.831470 0.555570 0.856145
v -0.923880 0.382683 0.856313
v -0.980785 0.195090 0.856418
v -1.000000 -0.000001 0.856453
v -0.980785 -0.195091 0.856417
v -0.923879 -0.382684 0.856313
v -0.831469 -0.555571 0.856144
v -0.707106 -0.707108 0.855917
v -0.555569 -0.831470 0.855640
v -0.382682 -0.923880 0.855324
v -0.195089 -0.980785 0.854981
v 0.000000 -1.000000 0.854624
v 0.000000 -1.000000 0.783946
v 0.195090 -0.980785 0.783946
v 0.382683 -0.923879 0.783946
v 0.555570 -0.831470 0.783946
v 0.707107 -0.707107 0.783946
v 0.831470 -0.555570 0.783946
v 0.923880 -0.382683 0.783946
v 0.980785 -0.195090 0.783946
v 1.000000 -0.000000 0.783946
v 0.980785 0.195090 0.783946
v 0.923880 0.382683 0.783946
v 0.831470 0.555570 0.783946
v 0.707107 0.707107 0.783946
v 0.555570 0.831470 0.783946
v 0.382683 0.923880 0.783946
v 0.195090 0.980785 0.783946
v -0.000000 1.000000 0.783946
v -0.195091 0.980785 0.783946
v -0.382684 0.923879 0.783946
v -0.555571 0.831469 0.783946
v -0.707107 0.707106 0.783946
v -0.831470 0.555570 0.783946
v -0.923880 0.382683 0.783946
v -0.980785 0.195089 0.783946
v -1.000000 -0.000001 0.783946
v -0.980785 -0.195091 0.783946
v -0.923879 -0.382684 0.783946
v -0.831469 -0.555571 0.783946
v -0.707106 -0.707108 0.783946
v -0.555569 -0.831470 0.783946
v -0.382682 -0.923880 0.783946
v -0.195089 -0.980785 0.783946
v 0.000000 -0.347364 -2.884778
v 0.067767 -0.340689 -2.884778
v 0.132930 -0.320922 -2.884778
v 0.192985 -0.288823 -2.884778
v 0.245623 -0.245623 -2.884778
v 0.288822 -0.192985 -2.884778
v 0.320922 -0.132931 -2.884778
v 0.340689 -0.067768 -2.884778
v 0.347364 -0.000000 -2.884778
v 0.340689 0.067767 -2.884778
v 0.320922 0.132930 -2.884778
v 0.288822 0.192984 -2.884778
v 0.245623 0.245623 -2.884778
v 0.192985 0.288822 -2.884778
v 0.132930 0.320922 -2.884778
v 0.067767 0.340689 -2.884778
v -0.000000 0.347363 -2.884778
v -0.067767 0.340689 -2.884778
v -0.132930 0.320922 -2.884778
v -0.192985 0.288822 -2.884778
v -0.245623 0.245623 -2.884778
v -0.288822 0.192984 -2.884778
v -0.320922 0.132930 -2.884778
v -0.340689 0.067767 -2.884778
v -0.347363 -0.000001 -2.884778
v -0.340689 -0.067768 -2.884778
v -0.320922 -0.132931 -2.884778
v -0.288822 -0.192985 -2.884778
v -0.245623 -0.245624 -2.884778
v -0.192984 -0.288823 -2.884778
v -0.132930 -0.320923 -2.884778
v -0.067767 -0.340689 -2.884778
v 0.000001 -0.347364 -0.844741
v 0.067768 -0.340689 -0.844741
v 0.132931 -0.320922 -0.844741
v 0.192985 -0.288822 -0.844741
v 0.245624 -0.245623 -0.844741
v 0.288823 -0.192985 -0.844741
v 0.320923 -0.132930 -0.844741
v 0.340690 -0.067767 -0.844741
v 0.347364 -0.000000 -0.844741
v 0.340690 0.067767 -0.844741
v 0.320923 0.132930 -0.844741
v 0.288823 0.192985 -0.844741
v 0.245624 0.245623 -0.844741
v 0.192985 0.288822 -0.844741
v 0.132931 0.320922 -0.844741
v 0.067768 0.340689 -0.844741
v 0.000000 0.347363 -0.844741
v -0.067767 0.340689 -0.844741
v -0.132930 0.320922 -0.844741
v -0.192984 0.288822 -0.844741
v -0.245623 0.245623 -0.844741
v -0.288822 0.192984 -0.844741
v -0.320922 0.132930 -0.844741
v -0.340688 0.067767 -0.844741
v -0.347363 -0.000001 -0.844741
v -0.340688 -0.067768 -0.844741
v -0.320921 -0.132931 -0.844741
v -0.288821 -0.192985 -0.844741
v -0.245622 -0.245624 -0.844741
v -0.192984 -0.288823 -0.844741
v -0.132929 -0.320922 -0.844741
v -0.067766 -0.340689 -0.844741
v 0.555570 0.831470 -0.736544
v 0.382683 0.923880 -0.736544
v 0.195090 0.980785 -0.736544
v -0.000000 1.000000 -0.736544
v -0.195091 0.980785 -0.736544
v -0.382684 0.923879 -0.736544
v -0.555571 0.831469 -0.736544
v 0.555570 0.831470 0.783946
v 0.382683 0.923880 0.783946
v 0.195090 0.980785 0.783946
v -0.000000 1.000000 0.783946
v -0.195091 0.980785 0.783946
v -0.382684 0.923879 0.783946
v -0.555571 0.831469 0.783946
v 0.000001 -0.347364 -0.844741
v 0.067768 -0.340689 -0.844741
v 0.132931 -0.320922 -0.844741
v 0.192985 -0.288822 -0.844741
v 0.245624 -0.245623 -0.844741
v 0.288823 -0.192985 -0.844741
v 0.320923 -0.132930 -0.844741
v 0.340690 -0.067767 -0.844741
v 0.347364 -0.000000 -0.844741
v 0.340690 0.067767 -0.844741
v 0.320923 0.132930 -0.844741
v 0.288823 0.192985 -0.844741
v 0.245624 0.245623 -0.844741
v 0.192985 0.288822 -0.844741
v 0.132931 0.320922 -0.844741
v 0.067768 0.340689 -0.844741
v 0.000000 0.347363 -0.844741
v -0.067767 0.340689 -0.844741
v -0.132930 0.320922 -0.844741
v -0.192984 0.288822 -0.844741
v -0.245623 0.245623 -0.844741
v -0.288822 0.192984 -0.844741
v -0.320922 0.132930 -0.844741
v -0.340688 0.067767 -0.844741
v -0.347363 -0.000001 -0.844741
v -0.340688 -0.067768 -0.844741
v -0.320921 -0.132931 -0.844741
v -0.288821 -0.192985 -0.844741
v -0.245622 -0.245624 -0.844741
v -0.192984 -0.288823 -0.844741
v -0.132929 -0.320922 -0.844741
v -0.067766 -0.340689 -0.844741
vn 0.0977 -0.9915 -0.0863
vn 0.2892 -0.9534 -0.0863
vn 0.4696 -0.8786 -0.0863
vn 0.6320 -0.7701 -0.0863
vn 0.7701 -0.6320 -0.0863
vn 0.8786 -0.4696 -0.0863
vn 0.9534 -0.2892 -0.0863
vn 0.9915 -0.0977 -0.0863
vn 0.9915 0.0977 -0.0863
vn 0.9534 0.2892 -0.0863
vn 0.8786 0.4696 -0.0863
vn 0.7701 0.6320 -0.0863
vn 0.6320 0.7701 -0.0863
vn 0.4696 0.8786 -0.0863
vn 0.2892 0.9534 -0.0863
vn 0.0977 0.9915 -0.0863
vn -0.0977 0.9915 -0.0863
vn -0.2892 0.9534 -0.0863
vn -0.4696 0.8786 -0.0863
vn -0.6320 0.7701 -0.0863
vn -0.7701 0.6320 -0.0863
vn -0.8786 0.4696 -0.0863
vn -0.9534 0.2892 -0.0863
vn -0.9915 0.0977 -0.0863
vn -0.9915 -0.0977 -0.0863
vn -0.9534 -0.2892 -0.0863
vn -0.8786 -0.4696 -0.0863
vn -0.7701 -0.6320 -0.0863
vn -0.6320 -0.7701 -0.0863
vn -0.4696 -0.8786 -0.0863
vn 0.2289 -0.7547 -0.6149
vn -0.2892 -0.9534 -0.0863
vn -0.0977 -0.9915 -0.0863
vn -0.0000 0.0000 1.0000
vn -0.2903 -0.9569 0.0000
vn -0.4714 -0.8819 0.0000
vn -0.6344 -0.7730 0.0000
vn -0.7730 -0.6344 0.0000
vn -0.8819 -0.4714 0.0000
vn -0.9569 -0.2903 0.0000
vn -0.9952 -0.0980 0.0000
vn -0.9952 0.0980 -0.0000
vn -0.9569 0.2903 -0.0000
vn -0.8819 0.4714 -0.0000
vn -0.7730 0.6344 -0.0000
vn -0.6344 0.7730 -0.0000
vn 0.6344 0.7730 -0.0000
vn 0.7730 0.6344 -0.0000
vn 0.8819 0.4714 -0.0000
vn 0.9569 0.2903 -0.0000
vn 0.9952 0.0980 -0.0000
vn 0.9952 -0.0980 0.0000
vn 0.9569 -0.2903 0.0000
vn 0.8819 -0.4714 0.0000
vn 0.7730 -0.6344 0.0000
vn 0.6344 -0.7730 0.0000
vn 0.4714 -0.8819 0.0000
vn 0.2903 -0.9569 0.0000
vn 0.0980 -0.9952 0.0000
vn -0.0980 -0.9952 0.0000
vn -0.1329 -0.4382 -0.8890
vn -0.2159 -0.4038 -0.8890
vn -0.2905 -0.3540 -0.8890
vn -0.3540 -0.2905 -0.8890
vn -0.4038 -0.2159 -0.8890
vn -0.4382 -0.1329 -0.8890
vn -0.4557 -0.0449 -0.8890
vn -0.4557 0.0449 -0.8890
vn -0.4382 0.1329 -0.8890
vn -0.4038 0.2159 -0.8890
vn -0.3540 0.2905 -0.8890
vn -0.2905 0.3540 -0.8890
vn -0.2159 0.4038 -0.8890
vn -0.1329 0.4382 -0.8890
vn -0.0449 0.4557 -0.8890
vn 0.0449 0.4557 -0.8890
vn 0.1329 0.4382 -0.8890
vn 0.2159 0.4038 -0.8890
vn 0.2905 0.3540 -0.8890
vn 0.3540 0.2905 -0.8890
vn 0.4038 0.2159 -0.8890
vn 0.4382 0.1329 -0.8890
vn 0.4557 0.0449 -0.8890
vn 0.4557 -0.0449 -0.8890
vn 0.4382 -0.1329 -0.8890
vn 0.4038 -0.2159 -0.8890
vn 0.3540 -0.2905 -0.8890
vn 0.2905 -0.3540 -0.8890
vn 0.2159 -0.4038 -0.8890
vn 0.1329 -0.4382 -0.8890
vn 0.0449 -0.4557 -0.8890
vn -0.0449 -0.4557 -0.8890
vn -0.0522 -0.5383 0.8411
vn -0.1559 -0.5169 0.8417
vn -0.2534 -0.4758 0.8423
vn -0.3410 -0.4165 0.8428
vn -0.4152 -0.3415 0.8432
vn -0.4735 -0.2535 0.8435
vn -0.5135 -0.1560 0.8438
vn -0.5339 -0.0527 0.8439
vn -0.5339 0.0527 0.8439
vn -0.5135 0.1560 0.8438
vn -0.4735 0.2535 0.8435
vn -0.4152 0.3415 0.8432
vn -0.3410 0.4165 0.8428
vn -0.2534 0.4758 0.8423
vn -0.1559 0.5169 0.8417
vn -0.0522 0.5383 0.8411
vn 0.0540 0.5391 0.8405
vn 0.1583 0.5191 0.8399
vn 0.2569 0.4790 0.8394
vn 0.3459 0.4204 0.8389
vn 0.4216 0.3453 0.8384
vn 0.4813 0.2568 0.8381
vn 0.5225 0.1582 0.8379
vn 0.5434 0.0534 0.8377
vn 0.5434 -0.0534 0.8377
vn 0.5225 -0.1582 0.8379
vn 0.4813 -0.2568 0.8381
vn 0.4216 -0.3453 0.8384
vn 0.3459 -0.4204 0.8389
vn 0.2569 -0.4790 0.8394
vn 0.1583 -0.5191 0.8399
vn 0.0540 -0.5391 0.8405
vn -0.4714 0.8819 0.0000
vn -0.2903 0.9569 0.0000
vn -0.0980 0.9952 0.0000
vn 0.0980 0.9952 0.0000
vn 0.2903 0.9569 0.0000
vn 0.4714 0.8819 0.0000
vn 0.6955 0.3718 -0.6149
vn -0.5003 0.6096 -0.6149
vn -0.5003 -0.6096 -0.6149
vn 0.7547 -0.2289 -0.6149
vn 0.0773 0.7848 -0.6149
vn -0.7848 -0.0773 -0.6149
vn 0.3718 -0.6955 -0.6149
vn 0.6096 0.5003 -0.6149
vn -0.6096 0.5003 -0.6149
vn -0.3718 -0.6955 -0.6149
vn 0.7848 -0.0773 -0.6149
vn -0.0773 0.7848 -0.6149
vn -0.7547 -0.2289 -0.6149
vn 0.5003 -0.6096 -0.6149
vn 0.5003 0.6096 -0.6149
vn -0.6955 0.3718 -0.6149
vn -0.2289 -0.7547 -0.6149
vn 0.7848 0.0773 -0.6149
vn -0.2289 0.7547 -0.6149
vn -0.6955 -0.3718 -0.6149
vn 0.6096 -0.5003 -0.6149
vn 0.3718 0.6955 -0.6149
vn -0.7547 0.2289 -0.6149
vn 0.0773 -0.7848 -0.6149
vn -0.0773 -0.7848 -0.6149
vn 0.7547 0.2289 -0.6149
vn -0.3718 0.6955 -0.6149
vn -0.6096 -0.5003 -0.6149
vn 0.6955 -0.3718 -0.6149
vn 0.2289 0.7547 -0.6149
vn -0.7848 0.0773 -0.6149
usemtl None
s off
f 143//8 48//8 50//8 144//8
f 144//9 50//9 52//9 145//9
f 145//10 52//10 54//10 146//10
f 146//11 54//11 56//11 147//11
f 147//12 56//12 58//12 148//12
f 148//13 58//13 60//13 149//13
f 149//14 60//14 62//14 150//14
f 150//15 62//15 64//15 151//15
f 151//16 64//16 66//16 152//16
f 152//17 66//17 68//17 153//17
f 153//18 68//18 70//18 154//18
f 154//19 70//19 72//19 155//19
f 155//20 72//20 74//20 156//20
f 156//21 74//21 76//21 157//21
f 157//22 76//22 78//22 158//22
f 158//23 78//23 80//23 159//23
f 159//24 80//24 82//24 160//24
f 160//25 82//25 84//25 161//25
f 161//26 84//26 86//26 162//26
f 162//27 86//27 88//27 163//27
f 163//28 88//28 90//28 164//28
f 164//29 90//29 92//29 165//29
f 165//30 92//30 94//30 166//30
f 166//31 94//31 96//31 167//31
f 167//32 96//32 98//32 168//32
f 168//33 98//33 100//33 169//33
f 169//34 100//34 102//34 170//34
f 170//35 102//35 104//35 171//35
f 171//36 104//36 106//36 172//36
f 172//37 106//37 108//37 173//37
f 52//38 50//38 240//38 241//38
f 173//39 108//39 110//39 174//39
f 174//40 110//40 48//40 143//40
f 47//41 49//41 51//41 53//41 55//41 57//41 59//41 61//41 63//41 65//41 67//41 69//41 71//41 73//41 75//41 77//41 79//41 81//41 83//41 85//41 87//41 89//41 91//41 93//41 95//41 97//41 99//41 101//41 103//41 105//41 107//41 109//41
f 237//42 141//42 142//42 238//42
f 236//43 140//43 141//43 237//43
f 235//44 139//44 140//44 236//44
f 234//45 138//45 139//45 235//45
f 233//46 137//46 138//46 234//46
f 232//47 136//47 137//47 233//47
f 231//48 135//48 136//48 232//48
f 230//49 134//49 135//49 231//49
f 229//50 133//50 134//50 230//50
f 228//51 132//51 133//51 229//51
f 227//52 131//52 132//52 228//52
f 226//53 130//53 131//53 227//53
f 282//41 281//41 327//41 328//41
f 226//41 225//41 315//41 316//41
f 295//41 294//41 340//41 341//41
f 125//41 126//41 305//41 304//41
f 281//41 280//41 326//41 327//41
f 294//41 293//41 339//41 340//41
f 219//54 123//54 124//54 220//54
f 218//55 122//55 123//55 219//55
f 217//56 121//56 122//56 218//56
f 216//57 120//57 121//57 217//57
f 215//58 119//58 120//58 216//58
f 214//59 118//59 119//59 215//59
f 213//60 117//60 118//60 214//60
f 212//61 116//61 117//61 213//61
f 211//62 115//62 116//62 212//62
f 210//63 114//63 115//63 211//63
f 209//64 113//64 114//64 210//64
f 208//65 112//65 113//65 209//65
f 207//66 111//66 112//66 208//66
f 238//67 142//67 111//67 207//67
f 141//68 173//68 174//68 142//68
f 140//69 172//69 173//69 141//69
f 139//70 171//70 172//70 140//70
f 138//71 170//71 171//71 139//71
f 137//72 169//72 170//72 138//72
f 136//73 168//73 169//73 137//73
f 135//74 167//74 168//74 136//74
f 134//75 166//75 167//75 135//75
f 133//76 165//76 166//76 134//76
f 132//77 164//77 165//77 133//77
f 131//78 163//78 164//78 132//78
f 130//79 162//79 163//79 131//79
f 129//80 161//80 162//80 130//80
f 128//81 160//81 161//81 129//81
f 127//82 159//82 160//82 128//82
f 126//83 158//83 159//83 127//83
f 125//84 157//84 158//84 126//84
f 124//85 156//85 157//85 125//85
f 123//86 155//86 156//86 124//86
f 122//87 154//87 155//87 123//87
f 121//88 153//88 154//88 122//88
f 120//89 152//89 153//89 121//89
f 119//90 151//90 152//90 120//90
f 118//91 150//91 151//91 119//91
f 117//92 149//92 150//92 118//92
f 116//93 148//93 149//93 117//93
f 115//94 147//94 148//94 116//94
f 114//95 146//95 147//95 115//95
f 113//96 145//96 146//96 114//96
f 112//97 144//97 145//97 113//97
f 111//98 143//98 144//98 112//98
f 142//99 174//99 143//99 111//99
f 109//100 205//100 206//100 47//100
f 107//101 204//101 205//101 109//101
f 105//102 203//102 204//102 107//102
f 103//103 202//103 203//103 105//103
f 101//104 201//104 202//104 103//104
f 99//105 200//105 201//105 101//105
f 97//106 199//106 200//106 99//106
f 95//107 198//107 199//107 97//107
f 93//108 197//108 198//108 95//108
f 91//109 196//109 197//109 93//109
f 89//110 195//110 196//110 91//110
f 87//111 194//111 195//111 89//111
f 85//112 193//112 194//112 87//112
f 83//113 192//113 193//113 85//113
f 81//114 191//114 192//114 83//114
f 79//115 190//115 191//115 81//115
f 77//116 189//116 190//116 79//116
f 75//117 188//117 189//117 77//117
f 73//118 187//118 188//118 75//118
f 71//119 186//119 187//119 73//119
f 69//120 185//120 186//120 71//120
f 67//121 184//121 185//121 69//121
f 65//122 183//122 184//122 67//122
f 63//123 182//123 183//123 65//123
f 61//124 181//124 182//124 63//124
f 59//125 180//125 181//125 61//125
f 57//126 179//126 180//126 59//126
f 55//127 178//127 179//127 57//127
f 53//128 177//128 178//128 55//128
f 51//129 176//129 177//129 53//129
f 49//130 175//130 176//130 51//130
f 47//131 206//131 175//131 49//131
f 204//42 237//42 238//42 205//42
f 203//43 236//43 237//43 204//43
f 202//44 235//44 236//44 203//44
f 201//45 234//45 235//45 202//45
f 200//46 233//46 234//46 201//46
f 199//47 232//47 233//47 200//47
f 198//48 231//48 232//48 199//48
f 197//49 230//49 231//49 198//49
f 196//50 229//50 230//50 197//50
f 195//51 228//51 229//51 196//51
f 194//52 227//52 228//52 195//52
f 193//53 226//53 227//53 194//53
f 192//132 225//132 226//132 193//132
f 191//133 224//133 225//133 192//133
f 190//134 223//134 224//134 191//134
f 189//135 222//135 223//135 190//135
f 188//136 221//136 222//136 189//136
f 187//137 220//137 221//137 188//137
f 186//54 219//54 220//54 187//54
f 185//55 218//55 219//55 186//55
f 184//56 217//56 218//56 185//56
f 183//57 216//57 217//57 184//57
f 182//58 215//58 216//58 183//58
f 181//59 214//59 215//59 182//59
f 180//60 213//60 214//60 181//60
f 179//61 212//61 213//61 180//61
f 178//62 211//62 212//62 179//62
f 177//63 210//63 211//63 178//63
f 176//64 209//64 210//64 177//64
f 175//65 208//65 209//65 176//65
f 206//66 207//66 208//66 175//66
f 205//67 238//67 207//67 206//67
f 241//133 240//133 272//133 273//133
f 70//138 68//138 249//138 250//138
f 88//139 86//139 258//139 259//139
f 106//140 104//140 267//140 268//140
f 62//141 60//141 245//141 246//141
f 80//142 78//142 254//142 255//142
f 98//143 96//143 263//143 264//143
f 54//144 52//144 241//144 242//144
f 72//145 70//145 250//145 251//145
f 90//146 88//146 259//146 260//146
f 108//147 106//147 268//147 269//147
f 64//148 62//148 246//148 247//148
f 82//149 80//149 255//149 256//149
f 100//150 98//150 264//150 265//150
f 56//151 54//151 242//151 243//151
f 74//152 72//152 251//152 252//152
f 92//153 90//153 260//153 261//153
f 110//154 108//154 269//154 270//154
f 66//155 64//155 247//155 248//155
f 84//156 82//156 256//156 257//156
f 102//157 100//157 265//157 266//157
f 58//158 56//158 243//158 244//158
f 76//159 74//159 252//159 253//159
f 94//160 92//160 261//160 262//160
f 50//161 48//161 239//161 240//161
f 48//162 110//162 270//162 239//162
f 68//163 66//163 248//163 249//163
f 86//164 84//164 257//164 258//164
f 104//165 102//165 266//165 267//165
f 60//166 58//166 244//166 245//166
f 78//167 76//167 253//167 254//167
f 96//168 94//168 262//168 263//168
f 126//41 127//41 306//41 305//41
f 268//54 267//54 299//54 300//54
f 255//67 254//67 286//67 287//67
f 242//132 241//132 273//132 274//132
f 269//137 268//137 300//137 301//137
f 256//66 255//66 287//66 288//66
f 243//53 242//53 274//53 275//53
f 270//136 269//136 301//136 302//136
f 257//65 256//65 288//65 289//65
f 244//52 243//52 275//52 276//52
f 239//135 270//135 302//135 271//135
f 258//64 257//64 289//64 290//64
f 245//51 244//51 276//51 277//51
f 259//63 258//63 290//63 291//63
f 246//50 245//50 277//50 278//50
f 260//62 259//62 291//62 292//62
f 247//49 246//49 278//49 279//49
f 261//61 260//61 292//61 293//61
f 248//48 247//48 279//48 280//48
f 262//60 261//60 293//60 294//60
f 249//47 248//47 280//47 281//47
f 263//59 262//59 294//59 295//59
f 250//46 249//46 281//46 282//46
f 264//58 263//58 295//58 296//58
f 251//45 250//45 282//45 283//45
f 265//57 264//57 296//57 297//57
f 252//44 251//44 283//44 284//44
f 266//56 265//56 297//56 298//56
f 253//43 252//43 284//43 285//43
f 240//134 239//134 271//134 272//134
f 267//55 266//55 298//55 299//55
f 254//42 253//42 285//42 286//42
f 124//41 125//41 304//41 303//41
f 296//41 295//41 341//41 342//41
f 225//41 224//41 314//41 315//41
f 283//41 282//41 328//41 329//41
f 297//41 296//41 342//41 343//41
f 130//41 226//41 316//41 309//41
f 224//41 223//41 313//41 314//41
f 284//41 283//41 329//41 330//41
f 298//41 297//41 343//41 344//41
f 223//41 222//41 312//41 313//41
f 285//41 284//41 330//41 331//41
f 272//41 271//41 317//41 318//41
f 299//41 298//41 344//41 345//41
f 222//41 221//41 311//41 312//41
f 286//41 285//41 331//41 332//41
f 273//41 272//41 318//41 319//41
f 300//41 299//41 345//41 346//41
f 221//41 220//41 310//41 311//41
f 287//41 286//41 332//41 333//41
f 274//41 273//41 319//41 320//41
f 301//41 300//41 346//41 347//41
f 288//41 287//41 333//41 334//41
f 275//41 274//41 320//41 321//41
f 302//41 301//41 347//41 348//41
f 289//41 288//41 334//41 335//41
f 276//41 275//41 321//41 322//41
f 271//41 302//41 348//41 317//41
f 290//41 289//41 335//41 336//41
f 277//41 276//41 322//41 323//41
f 129//41 130//41 309//41 308//41
f 291//41 290//41 336//41 337//41
f 220//41 124//41 303//41 310//41
f 278//41 277//41 323//41 324//41
f 128//41 129//41 308//41 307//41
f 292//41 291//41 337//41 338//41
f 279//41 278//41 324//41 325//41
f 127//41 128//41 307//41 306//41
f 293//41 292//41 338//41 339//41
f 280//41 279//41 325//41 326//41
